<?xml version="1.0" encoding="utf-8"?>
<!-- Generator: Adobe Illustrator 19.0.1, SVG Export Plug-In . SVG Version: 6.00 Build 0)  -->
<svg version="1.1" id="圖層_1" xmlns="http://www.w3.org/2000/svg" xmlns:xlink="http://www.w3.org/1999/xlink" x="0px" y="0px"
	 viewBox="-927 509 64 64" style="enable-background:new -927 509 64 64;" xml:space="preserve">
<style type="text/css">
	.st0{fill:#386E98;}
</style>
<path class="st0" d="M-895,509c-17.6,0-32,14.4-32,32s14.4,32,32,32s32-14.4,32-32S-877.4,509-895,509z M-895,511.5
	c16.3,0,29.5,13.2,29.5,29.5s-13.2,29.5-29.5,29.5s-29.5-13.2-29.5-29.5S-911.3,511.5-895,511.5z M-899.2,528
	c-1.1,0.1-1.9,1.1-1.8,2.2c0,0.5,0.3,0.9,0.6,1.3l9.6,9.6l-9.6,9.6c-0.9,0.7-1,2-0.3,2.8c0.7,0.8,2,1,2.8,0.3
	c0.1-0.1,0.2-0.2,0.3-0.3l11-11c0.8-0.8,0.8-2,0-2.8l-11-11c-0.4-0.4-0.9-0.6-1.4-0.6C-899.1,528-899.2,528-899.2,528z"/>
</svg>
