<?xml version="1.0" encoding="utf-8"?>
<!-- Generator: Adobe Illustrator 19.0.1, SVG Export Plug-In . SVG Version: 6.00 Build 0)  -->
<svg version="1.1" id="圖層_1" xmlns="http://www.w3.org/2000/svg" xmlns:xlink="http://www.w3.org/1999/xlink" x="0px" y="0px"
	 viewBox="-367.7 108.3 867.3 867.4" style="enable-background:new -367.7 108.3 867.3 867.4;" xml:space="preserve">
<style type="text/css">
	.st0{fill:#3B5998;}
</style>
<g>
	<g id="svg_1" transform="translate(0,1024) scale(0.10000000149011612,-0.10000000149011612) ">
		<path id="svg_2" class="st0" d="M399,9149c-559-33-1115-178-1618-420c-1221-588-2102-1719-2371-3044c-189-929-67-1900,344-2750
			C-2657,1716-1528,838-205,570c929-189,1900-67,2750,344c878,424,1597,1143,2021,2021c202,418,335,865,394,1324
			c109,840-28,1690-394,2446c-424,878-1143,1597-2021,2021C1880,9048,1138,9194,399,9149z M2168,6788l-3-473l-460-5
			c-520-6-488,0-544-88c-57-91-61-122-61-494v-338h535h535v-445v-445h-535h-535V3170V1840H585H70v1330v1330h-460h-460v445v445h460
			H70v321c0,349,10,457,56,616c126,434,462,783,857,888c144,39,206,42,715,44l472,1L2168,6788z"/>
	</g>
</g>
</svg>
