<?xml version="1.0" encoding="utf-8"?>
<!-- Generator: Adobe Illustrator 19.0.1, SVG Export Plug-In . SVG Version: 6.00 Build 0)  -->
<svg version="1.1" id="圖層_1" xmlns="http://www.w3.org/2000/svg" xmlns:xlink="http://www.w3.org/1999/xlink" x="0px" y="0px"
	 viewBox="-861 516 196 50" style="enable-background:new -861 516 196 50;" xml:space="preserve">
<style type="text/css">
	.st0{enable-background:new    ;}
</style>
<g>
	<g class="st0">
		<path d="M-853.4,528.3c-0.1,0.2-0.3,0.4-0.8,0.5v12.1c0,0.3-1.2,1-2.4,1h-0.5v-10.9c-0.9,1-2,1.8-3.1,2.6l-0.2-0.2
			c2.1-2.9,4.1-7.4,4.9-10.3l3.8,1.8c-0.1,0.3-0.4,0.4-1,0.4c-0.5,0.8-1.1,1.7-1.8,2.6L-853.4,528.3z M-852.2,519.6
			c-0.1,0.3-0.4,0.4-1,0.3c-1.6,1.8-4.3,4.1-7,5.5l-0.2-0.3c1.9-2.2,3.9-5.5,4.7-7.6L-852.2,519.6z M-851,533.9
			c0.9,2.6,0.7,4.6-0.1,5.5c-0.6,0.7-2,0.6-2.5-0.3c-0.4-0.9,0-1.7,0.8-2.1c0.7-0.5,1.5-1.9,1.4-3.1L-851,533.9z M-851.7,531v-8.2
			l2.8,1.1h2c0.1-0.7,0.3-1.4,0.4-2.3h-6.2l-0.2-0.7h6.6c0.2-1.1,0.3-2.2,0.5-3.2l4,0.9c-0.1,0.4-0.5,0.6-1.1,0.6l-0.3,1.7h3.1
			l1.6-2c0,0,1.8,1.4,2.8,2.4c-0.1,0.3-0.3,0.4-0.7,0.4h-7c-0.2,0.8-0.3,1.7-0.5,2.3h3.8l1.2-1.4l2.4,1.8c-0.2,0.2-0.4,0.4-1,0.5
			v5.2c0,0.1-0.2,0.2-0.6,0.3c0.6,0.4,1.6,1.1,2.3,1.7c-0.1,0.3-0.3,0.4-0.7,0.4h-16.3l-0.2-0.7h12.8l1-1.2c-0.1,0-0.3,0-0.4,0h-0.4
			v-0.7h-9.1v0.5c0,0.2-0.8,0.6-2,0.6H-851.7z M-840.2,538.5c0.7,0.3,0.9,0.6,0.9,1c0,1.1-1,1.6-4.9,1.6h-2.5
			c-2.3,0-2.8-0.5-2.8-2.2v-5.4l3.4,0.3c-0.1,0.3-0.3,0.5-0.8,0.6v3.9c0,0.3,0.1,0.4,0.8,0.4h2.1h1.8c0.3,0,0.5-0.1,0.6-0.3
			c0.2-0.3,0.5-1.2,0.9-2.3h0.3L-840.2,538.5z M-849.2,524.6v4.5h1.7v-4.5H-849.2z M-846,532.6c6.1,1.7,3.3,6.3,1.1,4.3
			c0.1-1.4-0.6-3.1-1.4-4.2L-846,532.6z M-843.9,524.6h-1.6v4.5h1.6V524.6z M-841.7,524.6v4.5h1.6v-4.5H-841.7z M-840.5,533.7
			c6.9,2,4.5,7.2,2,5.2c-0.2-1.7-1.2-3.7-2.3-5L-840.5,533.7z"/>
		<path d="M-829.4,534.5c1,2.6,0.9,4.6,0.1,5.7c-0.5,0.7-1.9,0.7-2.3-0.2c-0.4-0.8,0-1.5,0.7-2c0.6-0.6,1.4-2.2,1.2-3.5H-829.4z
			 M-831.7,531.2c0,0,0.6-0.1,0.9-0.3c1.2-0.9,2.6-2.7,3.8-4.5c-0.8,0.3-1.7,0.7-2.7,1.1c-0.2,0.3-0.4,0.5-0.7,0.6l-1.2-3
			c0,0,0.5-0.2,0.7-0.3c1.2-1.3,2.7-5,3.1-6.9l3.5,1.7c-0.1,0.3-0.4,0.4-0.9,0.4c-1.1,1.7-3,3.8-4.6,5.3c1,0,2.2,0,3.5,0
			c0.7-1.3,1.4-2.5,1.8-3.4l3,2.1c-0.1,0.2-0.5,0.4-1,0.3c-1.5,2.1-4.4,5.1-7,7.1c1.3-0.1,3.1-0.2,5-0.3c-0.3-0.9-0.8-1.7-1.2-2.3
			l0.3-0.2c5.4,2.1,3.3,6.1,1.4,4.5c0-0.4-0.1-0.9-0.3-1.3c-1.4,0.5-3.3,1.3-5.4,2.1c-0.2,0.3-0.4,0.6-0.7,0.7L-831.7,531.2z
			 M-827.1,534.1c4,3.5,1.1,7-0.5,4.9c0.3-1.6,0.3-3.4,0.1-4.8L-827.1,534.1z M-824.5,533.6c4.8,2.5,2.2,6.3,0.5,4.4
			c0.2-1.4-0.3-3.1-0.8-4.3L-824.5,533.6z M-810,537c0,0,1.7,1.4,2.7,2.4c-0.1,0.3-0.3,0.4-0.7,0.4h-10.2v1.3c0,0.2-0.9,0.9-2.3,0.9
			h-0.5V527c-0.7,0.8-1.4,1.6-2.2,2.3l-0.2-0.2c1.8-3.3,3.1-8.2,3.5-11.4l4,1.2c-0.1,0.3-0.3,0.5-0.9,0.5c-0.4,1-0.9,2.2-1.5,3.4
			l0.4,0.2h6.1l1.4-2c0,0,1.7,1.4,2.6,2.3c-0.1,0.3-0.3,0.4-0.7,0.4h-4.6v4.5h1l1.4-1.9c0,0,1.5,1.4,2.5,2.3
			c-0.1,0.3-0.3,0.4-0.7,0.4h-4.2v4.6h1l1.4-1.9c0,0,1.5,1.3,2.5,2.2c-0.1,0.3-0.3,0.4-0.7,0.4h-4.2v4.8h1.4L-810,537z
			 M-818.2,523.7v4.5h2.6v-4.5H-818.2z M-815.6,529h-2.6v4.6h2.6V529z M-818.2,539h2.6v-4.8h-2.6V539z M-816.2,517.5
			c6.6,1.9,3.4,6.8,1,4.4c0.1-1.5-0.5-3.2-1.2-4.3L-816.2,517.5z"/>
		<path d="M-803.3,523.8c6.9,0.4,4.8,5.5,2.1,3.8c-0.3-1.3-1.4-2.8-2.3-3.6L-803.3,523.8z M-794.9,521.3c-1.1,3.4-3.1,9.8-3.4,11.2
			c-0.3,0.9-0.4,1.9-0.4,2.6c0,1.4,1.1,2.3,1,4.6c0,1.3-0.9,2.2-2.1,2.2c-0.6,0-1.2-0.4-1.4-1.4c0.5-2.7,0.4-5.1-0.3-5.5
			c-0.4-0.3-0.8-0.4-1.4-0.4v-0.5h1.2c0.4,0,0.5,0,0.8-0.5c0.6-1,0.6-1,5.6-12.3L-794.9,521.3z M-801.1,518c7.2,0.6,5,5.9,2.2,4.1
			c-0.4-1.4-1.5-2.9-2.4-3.9L-801.1,518z M-781.9,527.1c0,0,2,1.5,3.1,2.6c-0.1,0.3-0.3,0.4-0.7,0.4h-9.8l3.4,1.6
			c-0.1,0.2-0.4,0.4-1,0.4c-1.5,1.9-4.4,4.3-6.8,5.9c2.5-0.1,6.1-0.3,10-0.6c-0.7-1.4-1.6-2.8-2.4-4l0.3-0.2
			c9.2,3.6,6.7,10.4,3.4,7.8c-0.2-1-0.5-2-1-3c-2.5,0.8-6.2,1.8-10.7,2.8c-0.2,0.3-0.4,0.5-0.6,0.6l-1.4-3.6c0,0,0.6-0.2,0.9-0.4
			c1.7-1.2,4.1-5.1,5-7.4h-6.2l-0.2-0.7h6.9v-5.5h-4.9l-0.2-0.7h5.1v-5.4l4,0.3c-0.1,0.4-0.3,0.6-1,0.7v4.3h2.1l1.6-2.1
			c0,0,1.8,1.5,3,2.5c-0.1,0.3-0.4,0.4-0.7,0.4h-5.9v5.5h3.1L-781.9,527.1z"/>
		<path d="M-756.5,530.3v-0.9h-2.6v3h3l1.5-2c0,0,1.7,1.3,2.8,2.3c-0.1,0.3-0.4,0.4-0.7,0.4h-6.6v3.1h3.8l1.6-2.1
			c0,0,1.8,1.4,2.9,2.4c-0.1,0.3-0.4,0.4-0.7,0.4h-7.6v3.7c0,0.3-1.2,1.1-2.3,1.1h-0.6v-4.7h-6.1l-0.2-0.7h6.3v-3.1h-5.4l-0.2-0.7
			h5.6v-3h-4.7l-0.2-0.7h5v-3.2h-5.5c-0.5,0.7-1,1.4-1.7,2.1l1.1,0.4c-0.1,0.2-0.3,0.4-0.8,0.5v12.4c0,0.2-1.2,1-2.4,1h-0.6v-11.5
			c-1,0.9-2,1.7-3.1,2.3l-0.2-0.3c2.3-2.7,4.4-6.9,5.4-9.7l3.7,1.9c0,0.1-0.1,0.1-0.1,0.1h4.2v-3.1h-4.6l-0.2-0.7h4.8v-3.3l3.9,0.4
			c-0.1,0.4-0.3,0.6-1,0.7v2.2h2.3l1.4-1.5l2.9,2.2c-0.2,0.2-0.5,0.4-1,0.6v2.6h0.1l1.1-1.7c0,0,1.2,1.2,1.9,2.1
			c-0.1,0.3-0.3,0.4-0.7,0.4h-2.4v4.1c0,0.2-1.5,0.7-2.5,0.7H-756.5z M-766.8,519.5c-0.1,0.2-0.3,0.4-1,0.3
			c-1.6,1.7-4.4,3.8-7.1,5.3l-0.3-0.3c1.9-2,3.8-5.3,4.7-7.3L-766.8,519.5z M-759.1,524.8h2.6v-3.1h-2.6V524.8z M-756.5,528.7v-3.2
			h-2.6v3.2H-756.5z"/>
		<path d="M-724.6,530.8c0,0,1.6,1.4,2.5,2.3c-0.1,0.3-0.3,0.4-0.7,0.4h-3.3v3.8c0,0.2-1.4,0.8-2.4,0.8h-0.5v-1.5h-4.1v1.8
			c0,2-0.5,3.1-4.2,3.5c-0.1-0.9-0.3-1.5-0.7-1.9c-0.5-0.4-1.1-0.7-2.6-1v-0.4c0,0,3.2,0.2,3.8,0.2c0.5,0,0.6-0.2,0.6-0.5v-1.7h-7.6
			l-0.2-0.7h7.8v-2.4h-10.2l-0.2-0.7h10.4v-2.4h-7.4l-0.2-0.7h7.6v-2.4h-4.1v0.6c0,0.3-1.4,0.9-2.6,0.9h-0.4v-6.8l3.3,1.2h3.8v-2
			h-10.1l-0.2-0.7h10.3v-2.9l4,0.4c0,0.4-0.3,0.6-0.9,0.7v1.8h5.6l1.7-2.1c0,0,1.9,1.4,3.1,2.4c-0.1,0.3-0.3,0.4-0.7,0.4h-9.7v2h3.9
			l1.4-1.5l2.9,2.1c-0.1,0.2-0.5,0.4-0.9,0.5v3c0,0.2-1.5,0.8-2.6,0.8h-0.5v-0.9h-4.2v2.4h3.9l1.3-1.5l2.8,2.1
			c-0.2,0.2-0.5,0.4-1,0.5v1.9h0.1L-724.6,530.8z M-736.2,526.6V524h-4.1v2.6H-736.2z M-733.1,524v2.6h4.2V524H-733.1z
			 M-733.1,532.8h4.1v-2.4h-4.1V532.8z M-729,533.5h-4.1v2.4h4.1V533.5z"/>
		<path d="M-696.4,522c-0.7,1.7-1.8,3.2-3.1,4.5c1.6,0.6,3.5,1.1,5.9,1.3l0,0.3c-0.8,0.4-1.3,1.5-1.4,2.9c-2.9-0.7-4.9-1.8-6.3-3
			c-0.7,0.5-1.6,1-2.5,1.4l3.5,0.3c-0.1,0.3-0.3,0.6-0.9,0.6c-0.1,0.7-0.2,1.4-0.3,2.1h2.8l1.5-1.4l2.6,2.1c-0.2,0.2-0.5,0.4-1,0.4
			c-0.3,4.3-0.8,6.5-2,7.4c-0.7,0.5-1.7,0.8-3.1,0.8c0-0.8-0.1-1.5-0.5-1.9c-0.4-0.4-1.2-0.7-2.1-0.9v-0.4c0.9,0.1,2.5,0.2,3,0.2
			c0.4,0,0.6,0,0.8-0.2c0.5-0.4,0.9-2.3,1.1-5.5h-3.2c-0.8,3.5-2.9,6.9-9,8.7l-0.2-0.3c4.1-2,5.7-5.1,6.3-8.3h-4.3l-0.2-0.7h4.6
			c0.1-1,0.2-1.9,0.3-2.9c-1.4,0.6-3.1,1.2-4.8,1.6l-0.2-0.3c2.8-1.1,5-2.5,6.6-4.1c-0.8-1-1.5-2.2-2.1-3.5
			c-0.9,0.8-1.8,1.5-2.8,2.1l2,1.9c-0.2,0.2-0.5,0.3-1,0.3c-0.9,1-2.5,2.2-3.7,2.8l-0.3-0.2c0.4-0.9,0.8-2.1,1.1-3.2h-1.5v11.2
			c0,2-0.5,3.4-3.7,3.7c-0.1-1-0.2-1.7-0.6-2.1c-0.4-0.4-0.9-0.8-2.2-1v-0.3c0,0,2.6,0.2,3.1,0.2c0.4,0,0.6-0.2,0.6-0.5v-5.9
			c-1.2,1.8-2.7,3.3-4.4,4.7l-0.3-0.3c2-2.6,3.4-6.2,4.2-9.7h-3.6l-0.2-0.7h5.7c-0.1-0.1-0.2-0.1-0.3-0.2c-0.5-1.4-1.9-3-3-4
			l0.2-0.2c1.6,0.1,2.8,0.5,3.6,0.9c0.5-0.8,1-1.8,1.4-2.7h-6.8l-0.2-0.7h7l1.6-1.6l2.7,2.6c-0.2,0.2-0.5,0.3-1,0.3
			c-1,0.7-2.6,1.8-4,2.5c1.3,1.1,1.1,2.6,0.1,3h1.8l1.4-1.5l0.3,0.3c1.3-1.8,2.5-4.5,3.2-7.3l3.7,1.3c-0.1,0.3-0.4,0.5-1,0.5
			c-0.3,0.6-0.7,1.2-1.1,1.8h4.7l1.6-2.1c0,0,1.7,1.5,2.8,2.5c-0.1,0.3-0.3,0.4-0.7,0.4H-696.4z M-703.7,522
			c-0.2,0.3-0.4,0.5-0.6,0.7c0.7,1.1,1.7,2,2.8,2.7c0.8-1.1,1.4-2.2,1.8-3.5H-703.7z"/>
		<path d="M-681.8,533.5v-1.6h-3.6c-0.3,3.5-1.2,7.3-4.3,10l-0.3-0.3c1.9-4.1,1.9-9.2,1.9-13.8v-8.2l2.5,0.8c1.8-0.9,3.7-2.1,4.8-3
			l3,2.6c-0.3,0.3-0.8,0.3-1.6,0c-1.5,0.4-3.7,0.9-5.9,1.2v3.1h3.3l1.3-1.5l2.8,2.1c-0.2,0.2-0.5,0.4-1.1,0.5v7.2
			c0,0.2-1.5,0.7-2.4,0.7H-681.8z M-681.8,531.2v-6h-3.5v2.9c0,1,0,2.1-0.1,3.1H-681.8z M-668.2,524.4c0,0,1.7,1.4,2.7,2.3
			c-0.1,0.3-0.3,0.4-0.7,0.4h-2.3v13.7c0,0.2-0.9,0.8-2.5,0.8h-0.5v-14.5h-2.7c0,4.9-0.7,11-7.1,14.7l-0.3-0.3
			c3.9-4.3,4.5-9.6,4.5-14.7v-7.5l3,1c2-0.9,4.1-2.1,5.3-2.9l3.2,2.9c-0.3,0.3-0.9,0.3-1.7,0c-1.7,0.4-4.3,0.8-6.8,1v5h4.6
			L-668.2,524.4z"/>
	</g>
	<g class="st0">
		<path d="M-859,558.2c0-2.6,0-3.1,0-3.6c0-0.6-0.2-0.8-0.7-1c-0.1,0-0.4-0.1-0.6-0.1c-0.1,0-0.1,0-0.1-0.1c0-0.1,0.1-0.1,0.3-0.1
			c0.8,0,1.8,0.1,1.9,0.1c0.2,0,1.3-0.1,2.3-0.1c1.7,0,4.7-0.2,6.7,1.9c0.8,0.9,1.6,2.3,1.6,4.3c0,2.1-0.9,3.7-1.8,4.7
			c-0.7,0.8-2.2,1.9-5.1,1.9c-0.7,0-1.6-0.1-2.3-0.1c-0.7,0-1.3-0.1-1.4-0.1c0,0-0.3,0-0.7,0c-0.3,0-0.7,0-1,0c-0.2,0-0.3,0-0.3-0.1
			c0,0,0-0.1,0.1-0.1c0.2,0,0.4,0,0.5-0.1c0.3-0.1,0.4-0.4,0.5-0.9c0.1-0.7,0.1-2,0.1-3.6V558.2z M-857.6,560c0,1.8,0,3.3,0,3.6
			c0,0.4,0.1,1.1,0.2,1.3c0.2,0.3,0.9,0.7,2.9,0.7c1.6,0,3-0.6,4-1.6c0.9-0.9,1.3-2.5,1.3-4c0-2.1-0.9-3.5-1.6-4.2
			c-1.6-1.7-3.5-1.9-5.5-1.9c-0.3,0-1,0.1-1.1,0.1c-0.2,0.1-0.2,0.2-0.2,0.3c0,0.6,0,2.3,0,3.6V560z"/>
		<path d="M-841.8,559.4c0-2.2,0-2.6,0-3.1c0-0.5-0.1-0.7-0.6-0.8c-0.1,0-0.4,0-0.5,0c-0.1,0-0.1-0.1-0.1-0.1c0-0.1,0.1-0.1,0.2-0.1
			c0.7,0,1.6,0,1.7,0c0.1,0,3.2,0,3.5,0c0.3,0,0.6-0.1,0.7-0.1c0.1,0,0.1-0.1,0.2-0.1c0.1,0,0.1,0.1,0.1,0.1c0,0.1-0.1,0.3-0.1,0.7
			c0,0.1-0.1,0.8-0.1,0.9c0,0.1-0.1,0.2-0.1,0.2c-0.1,0-0.1-0.1-0.1-0.2c0-0.1,0-0.3-0.1-0.5c-0.1-0.2-0.3-0.3-1.1-0.4
			c-0.3,0-2,0-2.1,0c-0.1,0-0.1,0-0.1,0.2v3.9c0,0.1,0,0.2,0.1,0.2c0.2,0,2.1,0,2.5,0c0.4,0,0.6-0.1,0.7-0.2
			c0.1-0.1,0.2-0.2,0.2-0.2s0.1,0,0.1,0.1s-0.1,0.3-0.1,0.8c0,0.3-0.1,0.8-0.1,0.9c0,0.1,0,0.3-0.1,0.3c-0.1,0-0.1,0-0.1-0.1
			c0-0.1,0-0.3-0.1-0.5c-0.1-0.2-0.2-0.4-0.8-0.4c-0.4-0.1-2-0.1-2.2-0.1c-0.1,0-0.1,0.1-0.1,0.1v1.2c0,0.5,0,2.2,0,2.4
			c0,1,0.3,1.1,1.8,1.1c0.4,0,1.1,0,1.5-0.2c0.4-0.2,0.6-0.4,0.7-1c0-0.2,0.1-0.2,0.2-0.2s0.1,0.1,0.1,0.2s-0.1,1.1-0.2,1.4
			c-0.1,0.4-0.3,0.4-0.8,0.4c-1.1,0-2,0-2.6,0c-0.6,0-1,0-1.2,0c0,0-0.3,0-0.6,0c-0.3,0-0.6,0-0.9,0c-0.2,0-0.2,0-0.2-0.1
			c0,0,0-0.1,0.1-0.1c0.1,0,0.3-0.1,0.5-0.1c0.3,0,0.3-0.3,0.4-0.8c0.1-0.6,0.1-1.7,0.1-3.1V559.4z"/>
		<path d="M-830.2,559.4c0-2.2,0-2.6,0-3.1c0-0.5-0.1-0.7-0.6-0.8c-0.1,0-0.4,0-0.5,0c-0.1,0-0.1-0.1-0.1-0.1c0-0.1,0.1-0.1,0.2-0.1
			c0.7,0,1.7,0,1.7,0c0.2,0,1.4,0,1.8,0c0.9,0,2,0.1,2.8,0.6c0.4,0.3,1,1,1,1.9c0,1.1-0.4,2.1-1.8,3.3c1.2,1.5,2.2,2.8,3.1,3.7
			c0.8,0.8,1.3,0.9,1.6,1c0.3,0.1,0.4,0.1,0.5,0.1s0.1,0.1,0.1,0.1c0,0.1-0.1,0.1-0.4,0.1h-0.9c-0.8,0-1.2-0.1-1.6-0.3
			c-0.6-0.3-1.2-1-2-2.1c-0.6-0.8-1.3-1.7-1.6-2.1c-0.1-0.1-0.1-0.1-0.2-0.1l-1.9,0c-0.1,0-0.1,0-0.1,0.1v0.3c0,1.4,0,2.5,0.1,3.1
			c0.1,0.4,0.1,0.7,0.6,0.8c0.2,0,0.5,0.1,0.7,0.1c0.1,0,0.1,0.1,0.1,0.1c0,0.1-0.1,0.1-0.2,0.1c-0.8,0-1.7-0.1-1.8-0.1
			c0,0-1,0.1-1.5,0.1c-0.2,0-0.2,0-0.2-0.1c0,0,0-0.1,0.1-0.1c0.1,0,0.3,0,0.5-0.1c0.3-0.1,0.3-0.3,0.4-0.8c0.1-0.6,0.1-1.7,0.1-3.1
			V559.4z M-828.9,560.6c0,0.1,0,0.1,0.1,0.2c0.2,0.1,1,0.2,1.6,0.2c0.4,0,0.8,0,1.1-0.3c0.5-0.3,0.9-1.1,0.9-2.2
			c0-1.8-1-2.8-2.6-2.8c-0.4,0-0.9,0.1-1.1,0.1c-0.1,0-0.1,0.1-0.1,0.2V560.6z"/>
		<path d="M-807.4,563.9L-807.4,563.9c0.4-1.2,1.8-5.3,2.3-7.1c0.2-0.5,0.2-0.7,0.2-0.9c0-0.3-0.1-0.4-0.8-0.4
			c-0.1,0-0.1-0.1-0.1-0.1c0-0.1,0.1-0.1,0.3-0.1c0.8,0,1.4,0,1.5,0c0.1,0,0.7,0,1.2,0c0.1,0,0.2,0,0.2,0.1c0,0.1,0,0.2-0.1,0.2
			c-0.1,0-0.3,0-0.5,0.1c-0.4,0.2-0.7,0.7-1,1.5c-0.7,1.8-2.1,6.4-2.7,7.9c-0.4,1.1-0.5,1.2-0.6,1.2c-0.2,0-0.3-0.2-0.5-0.7
			l-2.9-7.8c-0.5,1.2-2.5,6.5-3,7.8c-0.3,0.6-0.4,0.8-0.5,0.8c-0.2,0-0.3-0.2-0.6-1.1l-2.6-8.5c-0.2-0.8-0.4-0.9-0.8-1.1
			c-0.2-0.1-0.6-0.1-0.7-0.1c-0.1,0-0.1-0.1-0.1-0.1c0-0.1,0.1-0.1,0.2-0.1c0.8,0,1.6,0,1.7,0c0.1,0,0.8,0,1.5,0
			c0.2,0,0.3,0,0.3,0.1c0,0.1-0.1,0.1-0.2,0.1c-0.1,0-0.4,0-0.5,0.1c-0.1,0-0.2,0.1-0.2,0.3s0.1,0.7,0.3,1.3
			c0.2,0.9,1.7,6.1,1.9,6.7h0l3.1-8c0.2-0.6,0.3-0.7,0.4-0.7c0.1,0,0.2,0.2,0.4,0.7L-807.4,563.9z"/>
		<path d="M-796.6,555.5c0.2-0.5,0.3-0.6,0.4-0.6c0.2,0,0.2,0.2,0.4,0.5c0.3,0.6,2.6,6.5,3.5,8.7c0.5,1.3,0.9,1.5,1.3,1.6
			c0.2,0.1,0.4,0.1,0.6,0.1c0.1,0,0.2,0,0.2,0.1s-0.2,0.1-0.3,0.1c-0.2,0-1.3,0-2.3,0c-0.3,0-0.5,0-0.5-0.1c0-0.1,0-0.1,0.1-0.1
			c0.1,0,0.2-0.2,0.1-0.4l-1.3-3.3c0-0.1-0.1-0.1-0.1-0.1h-3.4c-0.1,0-0.1,0-0.2,0.1l-0.8,2.3c-0.1,0.4-0.2,0.7-0.2,1
			c0,0.3,0.3,0.4,0.5,0.4h0.1c0.1,0,0.2,0.1,0.2,0.1c0,0.1-0.1,0.1-0.2,0.1c-0.4,0-1.2-0.1-1.3-0.1c-0.2,0-0.9,0.1-1.5,0.1
			c-0.2,0-0.3,0-0.3-0.1c0-0.1,0.1-0.1,0.1-0.1c0.1,0,0.3,0,0.4,0c0.7-0.1,1-0.6,1.2-1.3L-796.6,555.5z M-795,561.5
			c0.1,0,0.1,0,0.1-0.1l-1.5-3.9c-0.1-0.2-0.2-0.2-0.3,0l-1.4,3.9c0,0.1,0,0.1,0.1,0.1H-795z"/>
		<path d="M-785.1,562.3c0-0.8-0.1-1.1-0.3-1.5c-0.1-0.2-2.1-3.4-2.6-4.1c-0.4-0.5-0.7-0.9-1-1c-0.2-0.1-0.5-0.2-0.6-0.2
			c-0.1,0-0.2-0.1-0.2-0.1c0-0.1,0.1-0.1,0.2-0.1c0.3,0,1.4,0,1.5,0c0.1,0,0.7,0,1.3,0c0.2,0,0.2,0,0.2,0.1c0,0.1-0.1,0.1-0.2,0.2
			c-0.1,0.1-0.2,0.1-0.2,0.2c0,0.2,0.1,0.4,0.2,0.6l2.7,4.5c0.3-0.6,2.2-3.7,2.4-4.1c0.2-0.3,0.3-0.6,0.3-0.7c0-0.2-0.1-0.3-0.2-0.4
			c-0.1,0-0.2-0.1-0.2-0.2c0,0,0.1-0.1,0.2-0.1c0.4,0,0.9,0,1,0c0.1,0,1.2,0,1.4,0c0.1,0,0.2,0,0.2,0.1c0,0.1-0.1,0.2-0.2,0.2
			c-0.2,0-0.5,0.1-0.7,0.2c-0.3,0.2-0.4,0.3-0.7,0.7c-0.5,0.6-2.6,3.9-2.9,4.5c-0.3,0.5-0.2,1-0.2,1.4v1.2c0,0.2,0,0.8,0.1,1.4
			c0,0.4,0.1,0.7,0.6,0.8c0.2,0,0.5,0.1,0.7,0.1c0.1,0,0.1,0.1,0.1,0.1c0,0.1-0.1,0.1-0.2,0.1c-0.8,0-1.8-0.1-1.9-0.1
			c-0.1,0-1,0.1-1.4,0.1c-0.2,0-0.2,0-0.2-0.1c0,0,0-0.1,0.1-0.1c0.1,0,0.3,0,0.4-0.1c0.3-0.1,0.4-0.3,0.4-0.8c0-0.6,0-1.2,0-1.4
			V562.3z"/>
		<path d="M-765.1,561.2c0,2.5,0.1,3.5,0.4,3.8c0.3,0.3,0.7,0.4,2,0.4c0.9,0,1.6,0,2-0.5c0.2-0.3,0.4-0.7,0.4-1
			c0-0.1,0.1-0.2,0.2-0.2c0.1,0,0.1,0.1,0.1,0.3c0,0.2-0.1,1.2-0.3,1.7c-0.1,0.4-0.2,0.5-1.1,0.5c-1.2,0-2.1,0-2.8,0
			c-0.7,0-1.2-0.1-1.7-0.1c-0.1,0-0.4,0-0.7,0c-0.3,0-0.7,0-1,0c-0.2,0-0.3,0-0.3-0.1c0,0,0-0.1,0.1-0.1c0.2,0,0.4,0,0.5-0.1
			c0.3-0.1,0.4-0.4,0.5-0.9c0.1-0.7,0.1-2,0.1-3.6v-3c0-2.6,0-3.1,0-3.6c0-0.6-0.2-0.8-0.7-1c-0.1,0-0.4-0.1-0.6-0.1
			c-0.1,0-0.1,0-0.1-0.1c0-0.1,0.1-0.1,0.3-0.1c0.8,0,1.8,0.1,1.9,0.1s1.3-0.1,1.8-0.1c0.2,0,0.3,0,0.3,0.1c0,0.1-0.1,0.1-0.1,0.1
			c-0.1,0-0.4,0-0.6,0.1c-0.5,0.1-0.6,0.4-0.7,1c0,0.5,0,1,0,3.6V561.2z"/>
		<path d="M-752.2,555.5c0.2-0.5,0.3-0.6,0.4-0.6c0.2,0,0.2,0.2,0.4,0.5c0.3,0.6,2.6,6.5,3.5,8.7c0.5,1.3,0.9,1.5,1.3,1.6
			c0.2,0.1,0.4,0.1,0.6,0.1c0.1,0,0.2,0,0.2,0.1s-0.2,0.1-0.3,0.1c-0.2,0-1.3,0-2.3,0c-0.3,0-0.5,0-0.5-0.1c0-0.1,0-0.1,0.1-0.1
			c0.1,0,0.2-0.2,0.1-0.4l-1.3-3.3c0-0.1,0-0.1-0.1-0.1h-3.4c-0.1,0-0.1,0-0.2,0.1l-0.8,2.3c-0.1,0.4-0.2,0.7-0.2,1
			c0,0.3,0.3,0.4,0.5,0.4h0.1c0.1,0,0.2,0.1,0.2,0.1c0,0.1-0.1,0.1-0.2,0.1c-0.4,0-1.2-0.1-1.3-0.1c-0.2,0-0.9,0.1-1.5,0.1
			c-0.2,0-0.3,0-0.3-0.1c0-0.1,0.1-0.1,0.1-0.1c0.1,0,0.3,0,0.4,0c0.7-0.1,1-0.6,1.2-1.3L-752.2,555.5z M-750.6,561.5
			c0.1,0,0.1,0,0-0.1l-1.5-3.9c-0.1-0.2-0.2-0.2-0.3,0l-1.4,3.9c0,0.1,0,0.1,0.1,0.1H-750.6z"/>
		<path d="M-733.1,563.9L-733.1,563.9c0.4-1.2,1.8-5.3,2.3-7.1c0.2-0.5,0.2-0.7,0.2-0.9c0-0.3-0.1-0.4-0.8-0.4
			c-0.1,0-0.1-0.1-0.1-0.1c0-0.1,0.1-0.1,0.3-0.1c0.8,0,1.4,0,1.5,0c0.1,0,0.7,0,1.2,0c0.1,0,0.2,0,0.2,0.1c0,0.1,0,0.2-0.1,0.2
			c-0.1,0-0.3,0-0.5,0.1c-0.4,0.2-0.7,0.7-1,1.5c-0.7,1.8-2.1,6.4-2.7,7.9c-0.4,1.1-0.5,1.2-0.6,1.2c-0.2,0-0.3-0.2-0.5-0.7
			l-2.9-7.8c-0.5,1.2-2.5,6.5-3,7.8c-0.3,0.6-0.4,0.8-0.5,0.8c-0.2,0-0.3-0.2-0.6-1.1l-2.6-8.5c-0.2-0.8-0.4-0.9-0.8-1.1
			c-0.2-0.1-0.6-0.1-0.7-0.1c-0.1,0-0.1-0.1-0.1-0.1c0-0.1,0.1-0.1,0.2-0.1c0.8,0,1.6,0,1.7,0c0.1,0,0.8,0,1.5,0
			c0.2,0,0.3,0,0.3,0.1c0,0.1-0.1,0.1-0.2,0.1c-0.1,0-0.4,0-0.5,0.1c-0.1,0-0.2,0.1-0.2,0.3s0.1,0.7,0.3,1.3
			c0.2,0.9,1.7,6.1,1.9,6.7h0l3.1-8c0.2-0.6,0.3-0.7,0.4-0.7c0.1,0,0.2,0.2,0.4,0.7L-733.1,563.9z"/>
		<path d="M-715.5,558.2c0-2.6,0-3.1,0-3.6c0-0.6-0.2-0.8-0.7-1c-0.1,0-0.4-0.1-0.6-0.1c-0.1,0-0.1,0-0.1-0.1c0-0.1,0.1-0.1,0.3-0.1
			c0.4,0,0.8,0,1.2,0l0.7,0c0.3,0,3.7,0,4.1,0c0.3,0,0.6,0,0.7-0.1c0.1,0,0.2-0.1,0.2-0.1c0.1,0,0.1,0.1,0.1,0.2
			c0,0.1-0.1,0.3-0.1,0.8c0,0.2,0,0.9-0.1,1.1c0,0.1,0,0.2-0.1,0.2s-0.1-0.1-0.1-0.2c0-0.1,0-0.4-0.2-0.6c-0.1-0.2-0.5-0.5-1.1-0.5
			l-2.6-0.1c-0.1,0-0.2,0.1-0.2,0.2v4.6c0,0.1,0,0.2,0.1,0.2l2.2,0c0.3,0,0.5,0,0.8,0c0.4,0,0.6-0.1,0.8-0.3
			c0.1-0.1,0.1-0.2,0.2-0.2c0.1,0,0.1,0.1,0.1,0.1c0,0.1-0.1,0.4-0.1,0.9c0,0.3-0.1,1-0.1,1.1c0,0.2,0,0.3-0.1,0.3
			c-0.1,0-0.1-0.1-0.1-0.2c0-0.2,0-0.4-0.1-0.6c-0.1-0.2-0.4-0.5-0.9-0.6c-0.4,0-2.3,0-2.5,0c-0.1,0-0.1,0-0.1,0.2v1.4
			c0,1.6,0,2.9,0.1,3.6c0.1,0.5,0.2,0.9,0.7,0.9c0.2,0,0.6,0.1,0.8,0.1c0.1,0,0.1,0.1,0.1,0.1c0,0.1-0.1,0.1-0.3,0.1
			c-0.9,0-2-0.1-2.1-0.1s-1.1,0.1-1.6,0.1c-0.2,0-0.3,0-0.3-0.1c0,0,0-0.1,0.1-0.1c0.2,0,0.4,0,0.5-0.1c0.3-0.1,0.4-0.4,0.5-0.9
			c0.1-0.7,0.1-2,0.1-3.6V558.2z"/>
		<path d="M-702.2,561.9c0,1.4,0,2.5,0.1,3.1c0,0.4,0.1,0.7,0.5,0.8c0.2,0,0.5,0.1,0.7,0.1c0.1,0,0.1,0.1,0.1,0.1
			c0,0.1-0.1,0.1-0.2,0.1c-0.8,0-1.8-0.1-1.8-0.1c-0.1,0-1,0.1-1.5,0.1c-0.2,0-0.2,0-0.2-0.1c0,0,0-0.1,0.1-0.1c0.1,0,0.3,0,0.5-0.1
			c0.3-0.1,0.3-0.3,0.4-0.8c0.1-0.6,0.1-1.7,0.1-3.1v-2.5c0-2.2,0-2.6,0-3.1c0-0.5-0.2-0.7-0.5-0.8c-0.2,0-0.4-0.1-0.5-0.1
			c-0.1,0-0.1-0.1-0.1-0.1c0-0.1,0.1-0.1,0.2-0.1c0.5,0,1.4,0,1.5,0c0.1,0,1,0,1.5,0c0.2,0,0.2,0,0.2,0.1c0,0-0.1,0.1-0.1,0.1
			c-0.1,0-0.2,0-0.4,0c-0.4,0.1-0.5,0.3-0.5,0.8c0,0.5,0,0.9,0,3.1V561.9z"/>
		<path d="M-695,559.4c0-2.2,0-2.6,0-3.1c0-0.5-0.1-0.7-0.6-0.8c-0.1,0-0.4,0-0.5,0c0,0-0.1-0.1-0.1-0.1c0-0.1,0.1-0.1,0.2-0.1
			c0.7,0,1.7,0,1.7,0c0.2,0,1.4,0,1.8,0c0.9,0,2,0.1,2.8,0.6c0.4,0.3,1,1,1,1.9c0,1.1-0.4,2.1-1.8,3.3c1.2,1.5,2.2,2.8,3.1,3.7
			c0.8,0.8,1.3,0.9,1.6,1c0.3,0.1,0.4,0.1,0.5,0.1s0.1,0.1,0.1,0.1c0,0.1-0.1,0.1-0.4,0.1h-0.9c-0.8,0-1.2-0.1-1.6-0.3
			c-0.6-0.3-1.2-1-2-2.1c-0.6-0.8-1.3-1.7-1.6-2.1c-0.1-0.1-0.1-0.1-0.2-0.1l-1.9,0c-0.1,0-0.1,0-0.1,0.1v0.3c0,1.4,0,2.5,0.1,3.1
			c0.1,0.4,0.1,0.7,0.6,0.8c0.2,0,0.5,0.1,0.7,0.1c0.1,0,0.1,0.1,0.1,0.1c0,0.1-0.1,0.1-0.2,0.1c-0.8,0-1.7-0.1-1.8-0.1
			c0,0-1,0.1-1.5,0.1c-0.2,0-0.2,0-0.2-0.1c0,0,0-0.1,0.1-0.1c0.1,0,0.3,0,0.5-0.1c0.3-0.1,0.3-0.3,0.4-0.8c0.1-0.6,0.1-1.7,0.1-3.1
			V559.4z M-693.8,560.6c0,0.1,0,0.1,0.1,0.2c0.2,0.1,1,0.2,1.6,0.2c0.4,0,0.8,0,1.1-0.3c0.5-0.3,0.9-1.1,0.9-2.2
			c0-1.8-1-2.8-2.6-2.8c-0.4,0-0.9,0.1-1.1,0.1c-0.1,0-0.1,0.1-0.1,0.2V560.6z"/>
		<path d="M-670.3,564.2c0.1,0.5,0.2,1.3,0.8,1.5c0.4,0.1,0.8,0.1,1,0.1c0.1,0,0.1,0,0.1,0.1c0,0.1-0.1,0.1-0.3,0.1
			c-0.3,0-2,0-2.5-0.1c-0.4,0-0.4-0.1-0.4-0.2c0,0,0-0.1,0.1-0.1c0.1,0,0.1-0.2,0.1-0.5l-0.7-7.3h0l-3.6,7.3
			c-0.3,0.6-0.4,0.8-0.5,0.8c-0.1,0-0.2-0.1-0.5-0.7c-0.4-0.7-1.4-2.5-1.7-3.3c-0.4-0.9-1.6-3.3-1.9-3.9h-0.1l-0.6,6.5
			c0,0.2,0,0.5,0,0.7c0,0.2,0.1,0.4,0.4,0.4c0.3,0.1,0.5,0.1,0.6,0.1c0.1,0,0.1,0.1,0.1,0.1c0,0.1-0.1,0.1-0.3,0.1
			c-0.6,0-1.3-0.1-1.4-0.1c-0.1,0-0.8,0.1-1.2,0.1c-0.2,0-0.3,0-0.3-0.1c0,0,0.1-0.1,0.2-0.1c0.1,0,0.2,0,0.4-0.1
			c0.5-0.1,0.5-0.6,0.6-1.1l1.1-9.3c0-0.2,0.1-0.3,0.2-0.3c0.1,0,0.2,0,0.3,0.2l4.5,8.9l4.3-8.9c0.1-0.1,0.1-0.2,0.2-0.2
			s0.2,0.1,0.2,0.4L-670.3,564.2z"/>
	</g>
</g>
</svg>
