<?xml version="1.0" encoding="utf-8"?>
<!-- Generator: Adobe Illustrator 19.0.1, SVG Export Plug-In . SVG Version: 6.00 Build 0)  -->
<svg version="1.1" id="圖層_1" xmlns="http://www.w3.org/2000/svg" xmlns:xlink="http://www.w3.org/1999/xlink" x="0px" y="0px"
	 viewBox="-645 497.2 606 87.4" style="enable-background:new -645 497.2 606 87.4;" xml:space="preserve">
<style type="text/css">
	.st0{enable-background:new    ;}
	.st1{fill:none;stroke:#000000;stroke-linejoin:round;}
</style>
<g class="st0">
	<path class="st1" d="M-624,562.7c-1.7,4.2-2.4,7.7-2.4,10.2c0,4.3,3.1,6.3,10.4,6.5v2.9h-28.5v-2.9c7.2-0.1,11.2-4.4,16.2-17.5
		l23.6-62.5l8.2-0.9l24.2,68c2.6,6.9,4.7,10.4,7.2,11.8c1.2,0.6,2.2,0.8,5.9,1.2v2.9h-36.1v-2.9c7-0.2,9.5-1.7,9.5-5.3
		c0-0.1,0-0.2,0-0.3c-0.1-1.8-0.7-4.5-1.7-7.3l-4.2-12.2h-29.2L-624,562.7z M-605.8,513.9l-13.5,36h26.2L-605.8,513.9z"/>
	<path class="st1" d="M-554.9,579.4c9-0.2,10-1.3,10-11.5v-54.1c0-10.2-1.1-11.4-10-11.5v-2.9h34.7c22,0,31.8,5.9,31.8,18.9
		c0,11.8-6.9,17.4-23.8,19.3v0.8c17.7,0.9,26.7,8.1,26.7,21.5c0,16-10.5,22.5-36.6,22.5h-32.8V579.4z M-521.3,536.3
		c11.5,0,17.6-6,17.6-17.4c0-10.9-6.2-16.3-18.4-16.3h-8.5v33.7H-521.3z M-522.2,579.1c13.9,0,20.8-6.7,20.8-19.8
		c0-7.4-2.6-13.3-7.2-16.4c-2.9-1.9-7.7-3-13.1-3h-9v39.3H-522.2z"/>
	<path class="st1" d="M-464.7,510.8c6.4-8.3,17.3-13.1,29.7-13.1c12.3,0,23,4.7,29.6,13.1c6.1,7.5,9.4,18.4,9.4,30
		c0,11.8-3.3,22.6-9.4,30.2c-6.7,8.3-17.3,13.1-29.6,13.1c-12.3,0-23.2-4.8-29.7-13.1c-6-7.5-9.4-18.5-9.4-30.2
		S-470.8,518.5-464.7,510.8z M-452.2,570.6c3.5,6.9,9.4,10.4,17.3,10.4c7.8,0,13.6-3.5,17.2-10.4c3.9-7.5,5.7-16.7,5.7-29.8
		c0-13-1.8-22.2-5.7-29.7c-3.7-7-9.3-10.4-17.2-10.4c-7.9,0-13.7,3.5-17.3,10.4c-3.9,7.5-5.7,17-5.7,29.7
		C-457.9,553.8-456.1,563-452.2,570.6z"/>
	<path class="st1" d="M-353.7,499.3v2.9c-8.6,0.3-9.5,1.4-9.5,11.5v35c0,10.4,1.1,16.6,4,21.5c3.5,6,9.6,9.2,17.5,9.2
		c9.3,0,16.5-4.4,19.8-12.3c1.8-4.2,2.8-11.2,2.8-19.8v-25.8c0-15.6-1.9-18.7-11.4-19.2v-3h27.3v3c-9.2,0.4-11.3,4-11.3,19.2v25.9
		c0,11.8-1.2,18.4-4.4,23.8c-5.2,8.8-13.4,12.8-26.1,12.8c-12.4,0-21.8-3.8-27.3-10.8c-4-5.3-5.3-10.5-5.3-21.8v-37.7
		c0-10.1-0.9-11.2-9.6-11.5v-2.9H-353.7z"/>
	<path class="st1" d="M-256.2,567.9c0,10.2,1.1,11.3,11.5,11.5v2.9h-37.6v-2.9c10.3-0.2,11.4-1.3,11.4-11.5v-65.6
		c-9.9,0.2-15.1,2-19,6.4c-3.1,3.5-5,9.2-6.7,19.1l-4-0.2l2.1-28.2h69.7l2.1,28.2l-4,0.2c-1.8-10.8-4-16.5-7.7-20
		c-3.9-3.8-8.9-5.3-18.1-5.5V567.9z"/>
	<path class="st1" d="M-151.6,499.3v2.9c-8.6,0.3-9.5,1.4-9.5,11.5v35c0,10.4,1.1,16.6,4,21.5c3.5,6,9.6,9.2,17.5,9.2
		c9.3,0,16.5-4.4,19.8-12.3c1.8-4.2,2.8-11.2,2.8-19.8v-25.8c0-15.6-1.9-18.7-11.4-19.2v-3h27.3v3c-9.2,0.4-11.3,4-11.3,19.2v25.9
		c0,11.8-1.2,18.4-4.4,23.8c-5.2,8.8-13.4,12.8-26.1,12.8c-12.4,0-21.8-3.8-27.3-10.8c-4-5.3-5.3-10.5-5.3-21.8v-37.7
		c0-10.1-0.9-11.2-9.6-11.5v-2.9H-151.6z"/>
	<path class="st1" d="M-93.2,556.2h4.4c1.6,16.6,8.2,24.5,20.6,24.5c9.8,0,15.6-5.8,15.6-15.3c0-7.5-4.3-12.1-18.2-18.9
		c-9.4-4.5-12-6-14.5-7.9c-6.3-4.7-9.1-10-9.1-17.6c0-9.1,5-17,13.1-20.7c3.8-1.8,8.2-2.6,14.2-2.6c3.7,0,5.2,0.2,13.5,1.9
		c1.6,0.3,2.8,0.4,3.9,0.4c1.8,0,3.3-0.3,6.7-1.6l-0.9,24.8h-4.4c-0.4-6.3-1.4-10.1-3.8-13.9c-3.3-5.7-8.8-8.8-15.3-8.8
		c-8.5,0-14.4,5.9-14.4,14.4c0,3.7,1.2,6.9,3.7,9.3c2.8,2.7,5.5,4.3,14.4,8.5c9.9,4.5,14.6,7.5,18.4,11.3c3.8,3.9,5.8,9,5.8,15.4
		c0,7.5-2.8,14-7.8,17.9c-5.2,4.1-12.2,6.3-20.3,6.3c-4.4,0-7.1-0.3-15-1.9c-1.3-0.2-2.8-0.3-4.2-0.3c-1.9,0-3.3,0.2-7.3,1
		L-93.2,556.2z"/>
</g>
</svg>
