<?xml version="1.0" encoding="utf-8"?>
<!-- Generator: Adobe Illustrator 24.0.1, SVG Export Plug-In . SVG Version: 6.00 Build 0)  -->
<svg version="1.1" id="圖層_1" xmlns="http://www.w3.org/2000/svg" xmlns:xlink="http://www.w3.org/1999/xlink" x="0px" y="0px"
	 viewBox="0 0 517.3 81.4" style="enable-background:new 0 0 517.3 81.4;" xml:space="preserve">
<style type="text/css">
	.st0{enable-background:new    ;}
	.st1{fill:none;stroke:#000000;stroke-linejoin:round;}
</style>
<g class="st0">
	<path class="st1" d="M61.2,12.3c-0.9-1.8-2.6-3.3-4.9-4.4C52.7,6,47.5,5.2,41,5.2c-8.8,0-15.8,3.1-20.7,9.2
		c-4.9,6-7.3,14.2-7.3,24.7c0,10.4,2.7,19,8.2,25.5c5.9,7.2,14.1,10.9,24.6,10.9c6,0,10.5-1.3,13.6-4.2c2.6-2.1,5.8-6.1,9.2-12.1
		c0.4,0,0.9,0.2,1.6,0.6c0.9,0.5,1.2,1,1.3,1.3c-0.6,2.7-2,5.9-4,9.7c-2.1,3.9-3.9,6.2-5.3,7c-2.2,0.7-4.9,1.3-7.8,2
		c-3.9,0.7-7.6,1.1-11,1.1c-13.6,0-24.2-3.6-31.7-10.8C4.3,62.9,0.5,53,0.5,40c0-7,1.6-13.3,4.7-19.2c3.4-6.4,8.4-11.3,14.9-14.7
		c6.9-3.8,15.2-5.6,25-5.6c2.3,0,4.9,0.1,7.3,0.4c2,0.1,4.2,0.4,6.6,0.7l5.5,0.9c2,0.2,3.6,0.4,4.7,0.5c-0.4,2.4-0.9,5.5-1.2,8.9
		c-0.4,4.2-0.6,7.5-0.7,10c-0.2,0.2-1,0.4-2.1,0.5c-1.1,0.1-1.6,0.1-1.7-0.2C63.1,17.5,62.3,14.2,61.2,12.3z"/>
	<path class="st1" d="M94.2,69.8C87.1,62,83.5,52.2,83.5,40.2c0-8.8,2.6-16.8,7.6-23.8C98.7,6,109.6,0.7,124,0.7
		c12,0,21.4,3.9,28.4,11.8c6.4,7.1,9.5,16,9.5,26.7c0,10.2-2.4,18.6-7.5,25.6c-7.7,10.8-18.5,16.2-32.4,16.2
		C110.4,80.9,101.1,77.3,94.2,69.8z M139.8,71.3c3.7-2.9,6.2-7,8-12c1.6-4.4,2.3-9.7,2.3-15.8c0-7-1.1-13.2-3.4-18.9
		c-2.4-6.1-6-10.8-10.8-14.1c-4.8-3.3-10.2-4.9-16.2-4.9c-4.2,0-7.8,0.9-11.1,2.7c-4.4,2.6-7.7,6.5-10,11.8
		c-2.1,5-3.2,10.8-3.2,17.3c0,6.9,1.2,13.3,3.8,19.2c2.7,6.5,6.6,11.4,11.9,14.8c4.4,2.8,9.5,4.2,15.4,4.2
		C132.1,75.6,136.5,74.1,139.8,71.3z"/>
	<path class="st1" d="M172.2,4.3c0.1-1,0.2-1.6,0.6-1.7l10.4,0.4h11l9.8-0.4c0.4,0.2,0.5,0.9,0.5,1.7S204.4,5.8,204,6l-3.7,0.5
		l-2.6,0.6c-2.1,0.5-3.2,2.1-3.3,4.9c-0.1,1.8-0.1,5.4-0.2,10.7l-0.1,35.1c0.1,5.4,0.2,9.3,0.4,11.8c0.1,0.9,0.4,1.7,1,2.3
		c0.4,0.6,0.9,1,1.3,1.1c0.7,0.2,2,0.5,3.8,0.6c1.6,0.1,3.4,0.2,5.6,0.4c3.6,0.1,7.2,0.1,11.1,0c2.8-0.1,5.3-1.7,7.2-4.5
		c2.6-3.4,5-8,7.2-13.6c0.5-0.1,1.2,0,2.1,0.2c0.9,0.4,1.3,0.7,1.6,1.1c-0.5,2.6-1.3,6.2-2.7,10.8c-1.5,4.9-2.7,8.1-3.7,9.9
		c-0.5,1.1-2.2,1.6-5,1.6l-40.2-0.6L171,79.2c-0.2-0.1-0.4-0.7-0.4-1.8c-0.1-1,0-1.6,0.4-1.7c3.7-0.4,6.4-0.7,8.1-1.1
		c2.3-0.6,3.6-2.3,3.8-5c0.4-4.4,0.5-14.9,0.5-31.5V22.5c-0.1-3.9-0.1-6.6-0.2-8.1c-0.1-4.2-1.3-6.6-3.9-7.1c-2-0.5-4.3-0.9-6.7-1.1
		C172.2,5.8,172,5.2,172.2,4.3z"/>
	<path class="st1" d="M239.4,4.3c0-1,0.1-1.6,0.4-1.7l15.7,0.4c2.1,0,4.9-0.1,8.2-0.2l6.2-0.1c0.2,0.1,0.4,0.7,0.4,1.7
		s-0.1,1.6-0.4,1.7l-2.6,0.5h-0.7l-2.4,0.6c-2.3,0.7-3.7,2.9-3.7,6.5c-0.2,13.8-0.2,25.6,0.1,35.3c0.2,5.9,1,10,2.3,12.6
		c1.3,3.7,3.7,6.6,7.1,8.7c3.9,2.4,8.6,3.7,14.2,3.7c2.8,0,5.4-0.2,7.5-0.7c2.6-0.6,4.8-1.7,6.5-3.2c4.4-3.6,6.7-9.8,7.2-18.6
		c0.2-5.1,0.4-10.7,0.5-16.7c0.1-6.9,0-13.2-0.2-19.1c-0.1-5-2-7.8-5.5-8.4l-2.7-0.6l-1.7-0.1L293.8,6c-0.2-0.2-0.4-0.9-0.2-1.7
		c0-1,0.1-1.6,0.4-1.7l5.5,0.1c3.4,0.1,6.5,0.2,9.2,0.2c2.1,0,4.8-0.1,7.8-0.2l5.3-0.1c0.1,0.1,0.2,0.7,0.4,1.7
		c0,1.1-0.1,1.6-0.4,1.7l-4,0.9l-1.1,0.4c-2.8,0.9-4.4,3.9-4.4,9.1l-0.5,22.4l-0.2,5.3c-0.2,6.4-0.9,11.5-1.7,15.2
		c-1.6,7.7-5.4,13.5-11.4,17.1c-5,3.1-11.1,4.5-18.5,4.5c-9.4,0-16.5-2.1-21.5-6.1c-4.7-3.7-7.3-9.1-8.1-16.2
		c-0.2-1.8-0.4-5-0.5-9.5c-0.1-3.6-0.2-8.1-0.2-13.8l-0.1-13.5c0-4.5,0-7.3-0.1-8.6c-0.1-3.3-1.3-5.3-3.4-6
		c-0.6-0.2-1.5-0.5-2.8-0.6L240.3,6c-0.4-0.1-0.6-0.1-0.9-0.1C239.4,5.9,239.2,5.3,239.4,4.3z"/>
	<path class="st1" d="M328.1,4.3c0.1-1,0.2-1.6,0.5-1.7l14.2,0.4h8.2c0.4,2.1,1.1,4.5,2.3,7.1c1.7,3.9,3.9,8.4,6.4,14
		c2.3,5.1,4.8,10.4,7.2,15.5c2.4,5.3,4.5,9.7,6.2,13.2c1.8,3.9,2.9,6.2,3.4,7c0.1,0.1,0.4,0.1,0.5-0.1C384,47.3,391.9,30.5,401,9.4
		c1.2-2.8,2-5,2.1-6.5h7.7l14.1-0.4c0.2,0.1,0.4,0.6,0.4,1.6s-0.1,1.6-0.4,1.8l-8,1.3c-2.3,0.6-3.4,2.3-3.4,4.9
		c-0.1,1.8-0.1,5.4,0,10.7l0.9,33.5c0.1,5.4,0.4,9.1,0.5,11.1c0.4,3.9,2,6.2,4.8,7c0.7,0.1,1.7,0.4,2.9,0.5l3.8,0.5
		c0.2,0.4,0.4,0.9,0.4,1.7c-0.1,0.9-0.2,1.5-0.5,1.8l-11-0.4h-5.3c-2.9,0-6.1,0-9.5,0.1l-6.9,0.2c-0.1-0.2-0.2-0.9-0.4-1.8
		c0-0.9,0.1-1.5,0.4-1.7c3.3-0.6,5.5-1,6.6-1.3c2.2-0.6,3.3-2.3,3.3-5.3V59c0-4.2,0-9.1-0.1-14.7c-0.1-11.8-0.2-20.7-0.4-26.7
		c-0.1-0.2-0.4-0.2-0.6,0c-0.6,1.3-2.3,5.1-5.1,11.1l-12.9,27.5c-1.6,3.4-2.9,6.4-4,8.9c-2.8,6.4-4.7,10.9-5.6,13.6
		c-0.1,0.1-0.7,0.1-1.7,0.2c-1,0.1-1.6,0.1-1.8,0c-0.7-2.3-2.3-6.6-4.7-12.6l-7.7-18.4l-7.5-17.3c-0.1-0.2-0.4-0.6-0.5-1.1
		l-5.4-12.5c-0.2-0.2-0.5-0.1-0.6,0.2c-0.5,6.9-1,15.1-1.5,24.5l-0.6,13.7c-0.2,4.5-0.4,8-0.4,10.4c0,4.7,1.3,7.2,4,8
		c1.2,0.4,3.8,0.9,7.7,1.3c0.2,0.2,0.4,0.9,0.2,1.8c-0.1,1-0.2,1.6-0.6,1.7l-4.8-0.1c-0.4,0-0.7,0-1-0.1c-3.4-0.1-6.2-0.1-8.7-0.1
		c-2.6,0-5.8,0-9.2,0.1c-0.2,0.1-0.5,0.1-0.9,0.1l-4.8,0.1c-0.2-0.2-0.4-0.9-0.4-1.8c0.1-0.9,0.2-1.5,0.4-1.7l2.4-0.4
		c0.4-0.1,0.6-0.1,0.9-0.1c1.1-0.1,2.1-0.4,2.7-0.5c3.1-0.9,4.9-3.8,5.4-8.7c0.4-2.2,0.7-5.8,1.1-10.7l1.3-14.9l2-27.1
		c0-2.8-1.1-4.7-3.4-5.4c-1.7-0.6-4.5-1.1-8.4-1.7C328.1,5.9,328.1,5.3,328.1,4.3z"/>
	<path class="st1" d="M430.1,4.3c0.1-1,0.2-1.6,0.5-1.7l10.9,0.4h4.5c3.1,0,4.9,0,5.5-0.1l0.5,1c0.1,0.4,0.4,0.9,0.7,1.2
		c0.6,1.1,1.7,2.6,3.2,4.4l11.4,14.1c4.2,5.1,8.4,10.4,13.1,16l19.3,23.4c0.1,0.1,0.4,0,0.5-0.1V35.5c0-4.9,0-9.1-0.1-12.5
		c-0.1-3.9-0.2-7-0.4-8.9c-0.2-3.7-1.8-5.8-4.7-6.5c-2.2-0.6-5-1.1-8.2-1.5c-0.2-0.2-0.4-0.9-0.4-1.7c0.1-1,0.2-1.6,0.4-1.7
		l11.1,0.4l18.4-0.4c0.2,0.1,0.4,0.7,0.4,1.7c0,0.9-0.1,1.5-0.4,1.7c-2.1,0.4-3.9,0.7-5.4,1.2c-2.6,0.9-3.9,3.2-4.2,6.6
		c-0.1,2.2-0.2,5-0.4,8.2l-0.4,17.3L506,54.1c0,2.9,0,5.8-0.1,8.3c0,5.9,0.1,11.5,0.2,16.9c-2.7-0.2-5.5-0.2-8.4,0
		c-1.5-2.1-4.5-6.2-9.2-12.2l-14.3-18.4L450,18.3c-0.1-0.1-0.1-0.1-0.2,0c-0.1,0-0.2,0-0.2,0.1c-0.1,6.7-0.2,15.5-0.1,26.3V58
		c0.1,4.2,0.1,7.1,0.2,8.7c0.2,4.2,2,6.6,5,7.3c0.9,0.2,1.8,0.5,3.2,0.7l4.2,0.5c0.2,0.2,0.4,0.9,0.2,1.7c-0.1,1-0.2,1.6-0.5,1.8
		l-10.5-0.4H441l-9.7,0.4c-0.1-0.1-0.2-0.7-0.2-1.8c0-1,0.1-1.6,0.2-1.7c2.3-0.2,4.5-0.6,6.5-1.1c2.9-0.9,4.5-3.3,4.7-7.2
		c0.2-3.1,0.5-9.4,0.6-18.9c0.1-8.8,0.4-20,0.5-33.5c0-0.5,0-1-0.1-1.5c-0.1-0.6-0.2-1.1-0.5-1.7c-0.6-1.2-1.5-2.2-2.7-2.8
		c-2-1.3-5.3-2.2-9.9-2.7C430.1,5.9,430.1,5.3,430.1,4.3z"/>
</g>
</svg>
