<?xml version="1.0" encoding="utf-8"?>
<!-- Generator: Adobe Illustrator 19.0.1, SVG Export Plug-In . SVG Version: 6.00 Build 0)  -->
<svg version="1.1" id="圖層_1" xmlns="http://www.w3.org/2000/svg" xmlns:xlink="http://www.w3.org/1999/xlink" x="0px" y="0px"
	 viewBox="-920.8 167.7 66.5 745.1" style="enable-background:new -920.8 167.7 66.5 745.1;" xml:space="preserve">
<style type="text/css">
	.st0{enable-background:new    ;}
	.st1{fill:none;stroke:#000000;stroke-linejoin:round;}
</style>
<g class="st0">
	<path class="st1" d="M-857.7,169.6c0.8,0.1,1.3,0.2,1.4,0.5l-0.3,8.5v9l0.3,8c-0.2,0.3-0.7,0.4-1.4,0.4c-0.7,0-1.2-0.1-1.4-0.4
		l-0.4-3l-0.5-2.1c-0.4-1.7-1.7-2.6-4-2.7c-1.5-0.1-4.4-0.1-8.7-0.2l-28.7-0.1c-4.4,0.1-7.6,0.2-9.6,0.3c-0.7,0.1-1.4,0.3-1.9,0.8
		c-0.5,0.3-0.8,0.7-0.9,1.1c-0.2,0.6-0.4,1.6-0.5,3.1c-0.1,1.3-0.2,2.8-0.3,4.6c-0.1,2.9-0.1,5.9,0,9.1c0.1,2.3,1.4,4.3,3.7,5.9
		c2.8,2.1,6.5,4.1,11.1,5.9c0.1,0.4,0,1-0.2,1.7c-0.3,0.7-0.6,1.1-0.9,1.3c-2.1-0.4-5.1-1.1-8.8-2.2c-4-1.2-6.6-2.2-8.1-3
		c-0.9-0.4-1.3-1.8-1.3-4.1l0.5-32.8l-0.3-10.5c0.1-0.2,0.6-0.3,1.5-0.3c0.8-0.1,1.3,0,1.4,0.3c0.3,3,0.6,5.2,0.9,6.6
		c0.5,1.9,1.9,2.9,4.1,3.1c3.6,0.3,12.2,0.4,25.7,0.4h12.7c3.2-0.1,5.4-0.1,6.6-0.2c3.4-0.1,5.4-1.1,5.8-3.2
		c0.4-1.6,0.7-3.5,0.9-5.5C-858.9,169.6-858.4,169.5-857.7,169.6z"/>
	<path class="st1" d="M-857.6,225.5c0.7,0.1,1.1,0.2,1.4,0.4l-0.3,9.3c-0.1,1.5-0.1,2.9-0.1,4.1v19.8c0,2.2,0,4.3,0.1,6.2
		c0.1,2.3,0.2,4,0.3,4.9c-0.3,0.3-0.4,0.4-0.5,0.4c-1.3-0.3-3.5-0.7-6.5-1.1c-2.4-0.3-4.8-0.5-7.2-0.7c-0.3-0.2-0.4-0.7-0.4-1.6
		c0-0.9,0.1-1.4,0.2-1.5c1.3-0.1,2.5-0.3,3.6-0.5l2.5-0.6c2.3-0.7,3.6-2.4,3.8-5l0.1-12.7l-0.1-2.7c-0.1-0.3-0.3-0.6-0.8-0.9
		c-0.5-0.2-0.8-0.3-1.1-0.3c-2.4-0.1-6.1-0.1-11.1-0.1H-884c-0.5,0-0.7,0.2-0.7,0.5c-0.1,2.3-0.1,5,0,7.9c0,3.4,0.1,5.9,0.2,7.5
		c0.1,1.7,1.1,2.8,3,3.4c1.2,0.5,2.5,0.8,4,1.1c0.1,0.3,0.2,0.9,0.2,1.7c-0.1,0.9-0.2,1.4-0.5,1.6c-1.2-0.2-2.6-0.4-4.1-0.5
		c-1.9-0.1-3.7-0.2-5.3-0.2c-1.7,0-3.4,0-5,0.1c-1.2,0-2.6,0-4.1,0.1c-0.3-0.3-0.4-0.8-0.4-1.7c-0.1-0.9,0-1.4,0.3-1.7
		c2-0.3,3.4-0.5,4.1-0.8c1.8-0.5,2.8-1.7,2.9-3.4c0.1-1.4,0.2-3.8,0.3-7.2c0-3,0-5.6-0.1-7.9c0-0.1-0.1-0.2-0.3-0.3
		c-0.2-0.1-0.4-0.2-0.5-0.2h-10l-10.2,0.2c-2,0-3.3,0.8-3.8,2.3c-0.2,0.9-0.4,3.1-0.5,6.6c-0.1,2.5-0.1,5.3-0.1,8.3
		c0.1,3.3,1.2,5.8,3.3,7.4c1.7,1.5,4.7,3.2,8.9,5c0.1,0.3,0,0.8-0.3,1.5c-0.3,0.7-0.5,1.2-0.8,1.4c-5.2-0.9-9.8-2.3-13.8-4.2
		c-0.3-0.2-0.6-0.4-0.7-0.5c-0.2-0.3-0.4-0.6-0.5-0.9c-0.3-0.9-0.4-2.5-0.4-4.8l0.3-18.8c0.1-2.6,0.1-5,0.1-7.3v-4.7l-0.3-11.2
		c0.1-0.2,0.6-0.3,1.4-0.3c0.7-0.1,1.2,0,1.5,0.2l0.4,4.3c0.2,1.4,0.4,2.5,0.6,3.3c0.5,2,2.3,3.2,5.4,3.4c0.9,0.1,3.8,0.1,8.7,0.1
		h28.4c4,0,6.4,0,7.2-0.1c3-0.1,4.7-1.1,5.1-3c0.3-1.1,0.7-2.9,1-5.3C-858.8,225.6-858.3,225.5-857.6,225.5z"/>
	<path class="st1" d="M-915.4,342c-0.6-0.1-1-0.2-1.1-0.3l-2.3-9c-0.5-2.2-0.8-4.3-1-6.3c-0.3-2.4-0.5-4.6-0.5-6.6
		c0-24,11-35.9,33.1-35.9c13.8,0,23.3,5.9,28.6,17.7c2.5,5.5,3.8,12,3.8,19.6c0,1.9-0.1,3.8-0.3,5.7c-0.1,1.5-0.3,3.2-0.6,5
		l-1.3,9.2c-5-1.1-10.4-1.7-16-1.8c-0.3-0.1-0.4-0.7-0.5-1.6c-0.1-0.9,0-1.4,0.2-1.7c6.5-0.7,10.5-2.3,12.1-4.9
		c1.9-3.2,2.8-7.8,2.8-13.7c0-7.7-2.6-13.5-7.7-17.5c-4.8-3.8-11.5-5.7-20-5.7c-9.1,0-16.3,2.3-21.8,6.9c-5.9,4.9-8.9,11.7-8.9,20.5
		c0,3.2,0.4,5.4,1.3,6.7c0.6,1.2,2,1.9,4.2,2.2c2.7,0.3,6.1,0.3,10.3,0.2c3-0.2,4.7-1.4,5.3-3.7c0.2-1,0.5-3.3,1-6.7
		c0.1-0.3,0.6-0.4,1.5-0.3c0.8,0.1,1.3,0.2,1.4,0.4l-0.1,5.9l-0.2,3.8v4.3c0,2.5,0,4.9,0.1,6.9l0.2,4c-0.1,0.1-0.6,0.2-1.5,0.2
		c-0.9,0-1.4-0.1-1.5-0.3c-0.3-1.6-0.5-2.7-0.7-3.3c-0.5-1.6-2.1-2.5-4.8-2.5c-1.9-0.1-3.9-0.1-6-0.1c-2.6,0-4.3,0-5.1,0.1
		c-1.3,0.1-2.2,0.9-2.9,2.5C-914.5,342.1-914.8,342.1-915.4,342z"/>
	<path class="st1" d="M-913.8,354.3c1,1.3,3.4,2.8,7.2,4.4c2.9,1.2,6.6,2.7,11.2,4.5l13.1,4.9c9.2,3.5,15.9,5.9,20,7.3
		c2.5,0.9,4.4,1.5,5.7,1.7l-0.1,4.6l0.1,2l-2.4,0.7c-1,0.3-1.9,0.6-2.8,0.9l-22,7.8l-14.1,5.1c-4.6,1.7-7.9,3-9.9,3.8
		c-3.4,1.5-5.4,2.8-6.2,3.8c-0.8,1.1-1.4,3.4-1.9,7c-0.1,0.2-0.6,0.3-1.4,0.2c-0.8-0.1-1.3-0.3-1.5-0.4l0.1-2.4c0-1.1,0-2.1,0.1-3
		c0.1-2.6,0.1-4.9,0.1-6.8c0-2.2,0-4.8-0.1-7.7l-0.2-5.5c0.2-0.1,0.7-0.2,1.5-0.3c0.7-0.1,1.2,0,1.4,0.2c0.3,2.5,0.7,4.3,1.1,5.5
		c0.5,1.1,1.4,1.5,2.5,1.1c2.1-0.6,4.9-1.5,8.6-2.8c3.4-1.2,6.3-2.3,8.8-3.2c0.5-0.1,0.7-0.4,0.7-0.9v-17.8c0-0.2-0.1-0.4-0.3-0.6
		c-0.2-0.2-0.4-0.3-0.6-0.4l-9.3-3.4c-3.6-1.3-6-1.9-7-2c-1.8-0.1-3,0.9-3.6,3.2c-0.3,1.3-0.6,3-0.8,4.8c-0.2,0.1-0.7,0.2-1.4,0.1
		c-0.8-0.1-1.3-0.2-1.5-0.3l0.3-8.8v-4.1c0-2.2,0-4.5-0.1-6.8c-0.1-0.3-0.1-0.7-0.1-1.2l-0.1-2.7c0.2-0.2,0.7-0.3,1.5-0.3
		c0.7,0,1.2,0.1,1.4,0.3C-915.4,350.6-914.7,353.1-913.8,354.3z M-867,378.2c0-0.1,0-0.2-0.1-0.3c-1.1-0.3-2.7-0.9-4.7-1.6l-17-5.9
		c-0.4,0-0.6,0.1-0.7,0.4c-0.1,0.5-0.1,1.5-0.1,3v9c0,1.4,0,2.3,0.1,2.8c0,0.1,0.1,0.2,0.3,0.3c0.1,0.1,0.3,0.1,0.5,0
		c8.7-2.8,15.9-5.3,21.7-7.4V378.2z"/>
	<path class="st1" d="M-857.7,413.7c0.8,0.1,1.3,0.2,1.4,0.5l-0.3,8.5v9l0.3,8c-0.2,0.3-0.7,0.4-1.4,0.4c-0.7,0-1.2-0.1-1.4-0.4
		l-0.4-3l-0.5-2.1c-0.4-1.7-1.7-2.6-4-2.7c-1.5-0.1-4.4-0.1-8.7-0.2l-28.7-0.1c-4.4,0.1-7.6,0.2-9.6,0.3c-0.7,0.1-1.4,0.3-1.9,0.8
		c-0.5,0.3-0.8,0.7-0.9,1.1c-0.2,0.6-0.4,1.6-0.5,3.1c-0.1,1.3-0.2,2.8-0.3,4.6c-0.1,2.9-0.1,5.9,0,9.1c0.1,2.3,1.4,4.3,3.7,5.9
		c2.8,2.1,6.5,4.1,11.1,5.9c0.1,0.4,0,1-0.2,1.7c-0.3,0.7-0.6,1.1-0.9,1.3c-2.1-0.4-5.1-1.1-8.8-2.2c-4-1.2-6.6-2.2-8.1-3
		c-0.9-0.4-1.3-1.8-1.3-4.1l0.5-32.8l-0.3-10.5c0.1-0.2,0.6-0.3,1.5-0.3c0.8-0.1,1.3,0,1.4,0.3c0.3,3,0.6,5.2,0.9,6.6
		c0.5,1.9,1.9,2.9,4.1,3.1c3.6,0.3,12.2,0.4,25.7,0.4h12.7c3.2-0.1,5.4-0.1,6.6-0.2c3.4-0.1,5.4-1.1,5.8-3.2
		c0.4-1.6,0.7-3.5,0.9-5.5C-858.9,413.7-858.4,413.6-857.7,413.7z"/>
	<path class="st1" d="M-864.2,540.4c1.5-0.7,2.7-2.1,3.6-4c1.5-3,2.2-7.2,2.2-12.5c0-7.2-2.5-12.9-7.5-16.9c-4.9-4-11.6-6-20.2-6
		c-8.5,0-15.5,2.2-20.8,6.7c-5.9,4.8-8.9,11.5-8.9,20.1c0,4.9,1.1,8.6,3.4,11.1c1.7,2.1,5,4.7,9.9,7.5c0,0.3-0.2,0.7-0.5,1.3
		c-0.4,0.7-0.8,1-1.1,1.1c-2.2-0.5-4.8-1.6-7.9-3.3c-3.2-1.7-5.1-3.2-5.7-4.3c-0.6-1.8-1.1-4-1.6-6.4c-0.6-3.2-0.9-6.2-0.9-9
		c0-11.1,2.9-19.8,8.8-25.9c5.8-6,13.9-9.1,24.5-9.1c5.7,0,10.9,1.3,15.7,3.8c5.2,2.8,9.2,6.9,12,12.2c3.1,5.6,4.6,12.4,4.6,20.4
		c0,1.9-0.1,4-0.3,6c-0.1,1.6-0.3,3.4-0.6,5.4l-0.7,4.5c-0.2,1.6-0.3,2.9-0.4,3.8c-2-0.3-4.5-0.7-7.3-1c-3.4-0.3-6.1-0.5-8.2-0.6
		c-0.2-0.2-0.3-0.8-0.4-1.7c-0.1-0.9-0.1-1.3,0.2-1.4C-868.5,541.9-865.8,541.3-864.2,540.4z"/>
	<path class="st1" d="M-911.2,567.3c6.4-5.8,14.4-8.7,24.2-8.7c7.2,0,13.7,2.1,19.4,6.2c8.5,6.2,12.8,15.1,12.8,26.9
		c0,9.8-3.2,17.5-9.6,23.2c-5.8,5.2-13.1,7.8-21.8,7.8c-8.3,0-15.2-2-20.9-6.1c-8.8-6.3-13.2-15.1-13.2-26.5
		C-920.3,580.6-917.3,573-911.2,567.3z M-912.4,604.6c2.4,3,5.7,5.1,9.8,6.5c3.6,1.3,7.9,1.9,12.9,1.9c5.7,0,10.8-0.9,15.4-2.8
		c5-2,8.8-4.9,11.5-8.8c2.7-3.9,4-8.3,4-13.2c0-3.4-0.7-6.4-2.2-9.1c-2.1-3.6-5.3-6.3-9.6-8.2c-4.1-1.7-8.8-2.6-14.1-2.6
		c-5.6,0-10.9,1-15.7,3.1c-5.3,2.2-9.3,5.4-12.1,9.7c-2.3,3.6-3.4,7.8-3.4,12.6C-915.9,598.3-914.7,601.9-912.4,604.6z"/>
	<path class="st1" d="M-857.7,631c0.8,0.1,1.3,0.2,1.4,0.5l-0.3,8.5v9l0.3,8c-0.2,0.3-0.7,0.4-1.4,0.4c-0.7,0-1.2-0.1-1.4-0.4
		l-0.4-3l-0.5-2.1c-0.4-1.7-1.7-2.6-4-2.7c-1.5-0.1-4.4-0.1-8.7-0.2l-28.7-0.1c-4.4,0.1-7.6,0.2-9.6,0.3c-0.7,0.1-1.4,0.3-1.9,0.8
		c-0.5,0.3-0.8,0.7-0.9,1.1c-0.2,0.6-0.4,1.6-0.5,3.1c-0.1,1.3-0.2,2.8-0.3,4.6c-0.1,2.9-0.1,5.9,0,9.1c0.1,2.3,1.4,4.3,3.7,5.9
		c2.8,2.1,6.5,4.1,11.1,5.9c0.1,0.4,0,1-0.2,1.7c-0.3,0.7-0.6,1.1-0.9,1.3c-2.1-0.4-5.1-1.1-8.8-2.2c-4-1.2-6.6-2.2-8.1-3
		c-0.9-0.4-1.3-1.8-1.3-4.1l0.5-32.8l-0.3-10.5c0.1-0.2,0.6-0.3,1.5-0.3c0.8-0.1,1.3,0,1.4,0.3c0.3,3,0.6,5.2,0.9,6.6
		c0.5,1.9,1.9,2.9,4.1,3.1c3.6,0.3,12.2,0.4,25.7,0.4h12.7c3.2-0.1,5.4-0.1,6.6-0.2c3.4-0.1,5.4-1.1,5.8-3.2
		c0.4-1.6,0.7-3.5,0.9-5.5C-858.9,631-858.4,630.9-857.7,631z"/>
	<path class="st1" d="M-857.7,685.9c0.8,0,1.3,0.1,1.4,0.3l-0.3,12.8c0,1.7,0.1,4,0.2,6.7l0.1,5.1c-0.1,0.2-0.6,0.3-1.4,0.3
		s-1.3-0.1-1.4-0.3l-0.4-2.1v-0.6l-0.5-2c-0.6-1.9-2.4-3-5.3-3c-11.3-0.2-20.9-0.2-28.8,0.1c-4.8,0.2-8.2,0.8-10.3,1.9
		c-3,1.1-5.4,3-7.1,5.8c-2,3.2-3,7-3,11.6c0,2.3,0.2,4.4,0.6,6.1c0.5,2.1,1.4,3.9,2.6,5.3c2.9,3.6,8,5.5,15.2,5.9
		c4.2,0.2,8.7,0.3,13.6,0.4c5.6,0.1,10.8,0,15.6-0.2c4.1-0.1,6.4-1.6,6.9-4.5l0.5-2.2l0.1-1.4l0.3-1.5c0.2-0.2,0.7-0.3,1.4-0.2
		c0.8,0,1.3,0.1,1.4,0.3l-0.1,4.5c-0.1,2.8-0.2,5.3-0.2,7.5c0,1.7,0.1,3.9,0.2,6.4l0.1,4.3c-0.1,0.1-0.6,0.2-1.4,0.3
		c-0.9,0-1.3-0.1-1.4-0.3l-0.7-3.3l-0.3-0.9c-0.7-2.3-3.2-3.6-7.4-3.6l-18.3-0.4l-4.3-0.2c-5.2-0.2-9.4-0.7-12.4-1.4
		c-6.3-1.3-11-4.4-14-9.3c-2.5-4.1-3.7-9.1-3.7-15.1c0-7.7,1.7-13.5,5-17.6c3-3.8,7.4-6,13.2-6.6c1.5-0.2,4.1-0.3,7.8-0.4
		c2.9-0.1,6.6-0.2,11.3-0.2l11-0.1c3.7,0,6,0,7-0.1c2.7-0.1,4.3-1.1,4.9-2.8c0.2-0.5,0.4-1.2,0.5-2.3l0.4-2.2
		c0.1-0.3,0.1-0.5,0.1-0.7C-859,685.9-858.5,685.8-857.7,685.9z"/>
	<path class="st1" d="M-857.7,758.4c0.8,0.1,1.3,0.2,1.4,0.4l-0.3,11.6v6.7c-1.7,0.3-3.7,0.9-5.8,1.9c-3.2,1.4-6.9,3.2-11.4,5.2
		c-4.2,1.9-8.5,3.9-12.7,5.9c-4.3,2-7.9,3.7-10.8,5.1c-3.2,1.5-5.1,2.4-5.7,2.8c-0.1,0.1-0.1,0.3,0.1,0.4
		c10.1,5.6,23.8,12.1,41,19.5c2.3,1,4.1,1.6,5.3,1.7v6.3l0.3,11.5c-0.1,0.2-0.5,0.3-1.3,0.3c-0.8,0-1.3-0.1-1.5-0.3l-1.1-6.5
		c-0.5-1.9-1.9-2.8-4-2.8c-1.5-0.1-4.4-0.1-8.7,0l-27.4,0.7c-4.4,0.1-7.4,0.3-9.1,0.4c-3.2,0.3-5.1,1.6-5.7,3.9
		c-0.1,0.6-0.3,1.4-0.4,2.4l-0.4,3.1c-0.3,0.2-0.7,0.3-1.4,0.3c-0.7-0.1-1.2-0.2-1.5-0.4l0.3-9v-4.3c0-2.4,0-5-0.1-7.8l-0.2-5.6
		c0.2-0.1,0.7-0.2,1.5-0.3c0.7,0,1.2,0.1,1.4,0.3c0.5,2.7,0.8,4.5,1.1,5.4c0.5,1.8,1.9,2.7,4.3,2.7h8.1c3.4,0,7.4,0,12-0.1
		c9.6-0.1,16.9-0.2,21.8-0.3c0.2-0.1,0.2-0.3,0-0.5c-1.1-0.5-4.2-1.9-9.1-4.2l-22.5-10.5c-2.8-1.3-5.2-2.4-7.3-3.3
		c-5.2-2.3-8.9-3.8-11.1-4.6c-0.1-0.1-0.1-0.6-0.2-1.4c-0.1-0.8-0.1-1.3,0-1.5c1.9-0.6,5.4-1.9,10.3-3.8l15-6.3l14.1-6.1
		c0.2-0.1,0.5-0.3,0.9-0.4l10.2-4.4c0.2-0.2,0.1-0.4-0.2-0.5c-5.6-0.4-12.3-0.8-20-1.2l-11.2-0.5c-3.7-0.2-6.5-0.3-8.5-0.3
		c-3.8,0-5.9,1.1-6.5,3.3c-0.3,1-0.7,3.1-1.1,6.3c-0.2,0.2-0.7,0.3-1.5,0.2c-0.8-0.1-1.3-0.2-1.4-0.5l0.1-3.9c0-0.3,0-0.6,0.1-0.8
		c0.1-2.8,0.1-5.1,0.1-7.1c0-2.1,0-4.7-0.1-7.5c-0.1-0.2-0.1-0.4-0.1-0.7l-0.1-3.9c0.2-0.2,0.7-0.3,1.5-0.3c0.7,0.1,1.2,0.2,1.4,0.3
		l0.3,2c0.1,0.3,0.1,0.5,0.1,0.7c0.1,0.9,0.3,1.7,0.4,2.2c0.7,2.5,3.1,4,7.1,4.4c1.8,0.3,4.7,0.6,8.7,0.9l12.2,1.1l22.1,1.6
		c2.3,0,3.8-0.9,4.4-2.8c0.5-1.4,0.9-3.7,1.4-6.9C-859,758.4-858.5,758.4-857.7,758.4z"/>
	<path class="st1" d="M-857.7,841.7c0.8,0.1,1.3,0.2,1.4,0.4l-0.3,8.9v3.7c0,2.5,0,4,0.1,4.5l-0.8,0.4c-0.3,0.1-0.7,0.3-1,0.6
		c-0.9,0.5-2.1,1.4-3.6,2.6l-11.5,9.3c-4.2,3.4-8.5,6.9-13.1,10.7l-19.1,15.8c-0.1,0.1,0,0.3,0.1,0.4h22.3c4,0,7.4,0,10.2-0.1
		c3.2-0.1,5.7-0.2,7.3-0.3c3-0.2,4.7-1.5,5.3-3.8c0.5-1.8,0.9-4.1,1.2-6.7c0.2-0.2,0.7-0.3,1.4-0.3c0.8,0.1,1.3,0.2,1.4,0.3
		l-0.3,9.1l0.3,15c-0.1,0.2-0.6,0.3-1.4,0.3c-0.7,0-1.2-0.1-1.4-0.3c-0.3-1.7-0.6-3.2-1-4.4c-0.7-2.1-2.6-3.2-5.4-3.4
		c-1.8-0.1-4.1-0.2-6.7-0.3l-14.1-0.3l-12-0.1c-2.4,0-4.7,0-6.8-0.1c-4.8,0-9.4,0.1-13.8,0.2c0.2-2.2,0.2-4.5,0-6.9
		c1.7-1.2,5.1-3.7,10-7.5l15-11.7l24.9-19.8c0.1-0.1,0.1-0.1,0-0.2c0-0.1,0-0.2-0.1-0.2c-5.5-0.1-12.7-0.2-21.5-0.1h-10.9
		c-3.4,0.1-5.8,0.1-7.1,0.2c-3.4,0.2-5.4,1.6-6,4.1c-0.2,0.7-0.4,1.5-0.6,2.6l-0.4,3.4c-0.2,0.2-0.7,0.3-1.4,0.2
		c-0.8-0.1-1.3-0.2-1.5-0.4l0.3-8.6v-8.3l-0.3-7.9c0.1-0.1,0.6-0.2,1.5-0.2c0.8,0,1.3,0.1,1.4,0.2c0.2,1.9,0.5,3.7,0.9,5.3
		c0.7,2.4,2.7,3.7,5.9,3.8c2.5,0.2,7.7,0.4,15.4,0.5c7.2,0.1,16.3,0.3,27.4,0.4c0.4,0,0.8,0,1.2-0.1c0.5-0.1,0.9-0.2,1.4-0.4
		c1-0.5,1.8-1.2,2.3-2.2c1.1-1.6,1.8-4.3,2.2-8.1C-859,841.7-858.5,841.7-857.7,841.7z"/>
</g>
</svg>
