<?xml version="1.0" encoding="utf-8"?>
<!-- Generator: Adobe Illustrator 19.0.1, SVG Export Plug-In . SVG Version: 6.00 Build 0)  -->
<svg version="1.1" id="圖層_1" xmlns="http://www.w3.org/2000/svg" xmlns:xlink="http://www.w3.org/1999/xlink" x="0px" y="0px"
	 viewBox="-719.3 514.9 459.8 52.8" style="enable-background:new -719.3 514.9 459.8 52.8;" xml:space="preserve">
<style type="text/css">
	.st0{fill:none;stroke:#FFFFFF;stroke-miterlimit:10;}
</style>
<g>
	<path class="st0" d="M-680.4,533.1c-0.7-4.3-1.7-6.9-3.5-9.6c-2.7-3.9-6.8-6.2-11.2-6.2c-4.3,0-8.1,2.2-10.3,5.9
		c-2.6,4.3-3.9,10.1-3.9,17.4c0,14.8,6,23.9,15.8,23.9c5,0,9.7-2.5,13-6.8c1.1-1.5,1.9-3,2.9-5.5l1.9,1.1c-3.6,9.4-10,14-19.9,14
		c-6.4,0-12.3-2.3-16.4-6.3c-4.5-4.4-6.8-11.1-6.8-19.2c0-16,9.2-26.4,23.4-26.4c3.5,0,4.9,0.3,11,1.9c0.9,0.3,1.8,0.4,2.8,0.4
		s1.5-0.1,3.6-0.9v16.2H-680.4z"/>
	<path class="st0" d="M-663.9,523.3c3.9-5,10.4-7.8,17.8-7.8c7.4,0,13.8,2.8,17.8,7.8c3.7,4.5,5.7,11,5.7,18c0,7-2,13.6-5.7,18.1
		c-4,5-10.4,7.8-17.8,7.8c-7.4,0-13.9-2.9-17.8-7.8c-3.6-4.5-5.7-11.1-5.7-18.1S-667.6,527.9-663.9,523.3z M-656.5,559.2
		c2.1,4.1,5.7,6.2,10.4,6.2c4.7,0,8.2-2.1,10.3-6.2c2.3-4.5,3.4-10,3.4-17.9c0-7.8-1.1-13.3-3.4-17.8c-2.2-4.2-5.6-6.3-10.3-6.3
		c-4.7,0-8.2,2.1-10.4,6.3c-2.3,4.5-3.4,10.2-3.4,17.8C-659.9,549.1-658.8,554.6-656.5,559.2z"/>
	<path class="st0" d="M-608.2,553.4c0,8.8,1.2,10.6,6.9,11v1.8H-618v-1.8c5.7-0.3,7-2.5,7-11.5v-26.4c0-6.5-1.1-7.9-6.5-8.3v-1.7
		h13.9l27.1,38.3v-25c0-5-0.3-7.4-1.3-9c-1-1.7-2.4-2.3-5.8-2.5v-1.8h16.8v1.8c-3.2,0.1-4.6,0.8-5.7,2.5c-1,1.6-1.4,4.3-1.4,8.5
		v37.2h-4.9l-29.7-42.4V553.4z"/>
	<path class="st0" d="M-538,557.5c0,6.1,0.7,6.8,6.9,6.9v1.7h-22.5v-1.7c6.2-0.1,6.8-0.8,6.8-6.9v-39.4c-5.9,0.1-9,1.2-11.4,3.9
		c-1.9,2.1-3,5.5-4,11.4l-2.4-0.1l1.3-16.9h41.8l1.3,16.9l-2.4,0.1c-1.1-6.5-2.4-9.9-4.6-12c-2.3-2.3-5.3-3.2-10.8-3.3V557.5z"/>
	<path class="st0" d="M-506.2,554.4c-1,2.5-1.5,4.6-1.5,6.1c0,2.6,1.9,3.8,6.3,3.9v1.7h-17.1v-1.7c4.3-0.1,6.7-2.7,9.7-10.5
		l14.2-37.5l4.9-0.5l14.5,40.8c1.5,4.1,2.8,6.3,4.3,7c0.7,0.3,1.3,0.5,3.5,0.7v1.7H-489v-1.7c4.2-0.1,5.7-1,5.7-3.2
		c0-0.1,0-0.1,0-0.2c-0.1-1.1-0.4-2.7-1-4.4l-2.5-7.3h-17.5L-506.2,554.4z M-495.3,525.1l-8.1,21.6h15.7L-495.3,525.1z"/>
	<path class="st0" d="M-424.7,533.1c-0.7-4.3-1.7-6.9-3.5-9.6c-2.7-3.9-6.8-6.2-11.2-6.2c-4.3,0-8.1,2.2-10.3,5.9
		c-2.6,4.3-3.9,10.1-3.9,17.4c0,14.8,6,23.9,15.8,23.9c5,0,9.7-2.5,13-6.8c1.1-1.5,1.9-3,2.9-5.5l1.9,1.1c-3.6,9.4-10,14-19.9,14
		c-6.4,0-12.3-2.3-16.4-6.3c-4.5-4.4-6.8-11.1-6.8-19.2c0-16,9.2-26.4,23.4-26.4c3.5,0,4.9,0.3,11,1.9c0.9,0.3,1.8,0.4,2.8,0.4
		c1,0,1.5-0.1,3.6-0.9v16.2H-424.7z"/>
	<path class="st0" d="M-389.9,557.5c0,6.1,0.7,6.8,6.9,6.9v1.7h-22.5v-1.7c6.2-0.1,6.8-0.8,6.8-6.9v-39.4c-5.9,0.1-9,1.2-11.4,3.9
		c-1.9,2.1-3,5.5-4,11.4l-2.4-0.1l1.3-16.9h41.8l1.3,16.9l-2.4,0.1c-1.1-6.5-2.4-9.9-4.6-12c-2.3-2.3-5.3-3.2-10.8-3.3V557.5z"/>
	<path class="st0" d="M-327.2,516.4v1.7c-5.2,0.2-5.7,0.9-5.7,6.9v21c0,6.3,0.7,10,2.4,12.9c2.1,3.6,5.8,5.5,10.5,5.5
		c5.6,0,9.9-2.7,11.9-7.4c1.1-2.5,1.7-6.7,1.7-11.9v-15.5c0-9.4-1.1-11.2-6.8-11.5v-1.8h16.4v1.8c-5.5,0.3-6.8,2.4-6.8,11.5v15.6
		c0,7-0.7,11-2.7,14.3c-3.1,5.3-8,7.6-15.6,7.6c-7.4,0-13.1-2.3-16.4-6.5c-2.4-3.2-3.2-6.3-3.2-13.1v-22.6c0-6.1-0.5-6.7-5.8-6.9
		v-1.7H-327.2z"/>
	<path class="st0" d="M-292.2,550.5h2.7c0.9,10,4.9,14.7,12.4,14.7c5.9,0,9.4-3.5,9.4-9.2c0-4.5-2.6-7.2-10.9-11.3
		c-5.7-2.7-7.2-3.6-8.7-4.7c-3.8-2.8-5.5-6-5.5-10.6c0-5.5,3-10.2,7.8-12.4c2.3-1.1,4.9-1.5,8.5-1.5c2.2,0,3.1,0.1,8.1,1.1
		c0.9,0.2,1.7,0.3,2.3,0.3c1.1,0,2-0.2,4-0.9l-0.5,14.9h-2.7c-0.3-3.8-0.9-6.1-2.3-8.3c-2-3.4-5.3-5.3-9.2-5.3
		c-5.1,0-8.6,3.5-8.6,8.6c0,2.2,0.7,4.1,2.2,5.6c1.7,1.6,3.3,2.6,8.6,5.1c5.9,2.7,8.8,4.5,11,6.8c2.3,2.3,3.5,5.4,3.5,9.2
		c0,4.5-1.7,8.4-4.7,10.7c-3.1,2.5-7.3,3.8-12.2,3.8c-2.7,0-4.3-0.2-9-1.1c-0.8-0.1-1.7-0.2-2.5-0.2c-1.1,0-2,0.1-4.4,0.6
		L-292.2,550.5z"/>
</g>
</svg>
