<?xml version="1.0" encoding="utf-8"?>
<!-- Generator: Adobe Illustrator 19.0.1, SVG Export Plug-In . SVG Version: 6.00 Build 0)  -->
<svg version="1.1" id="圖層_1" xmlns="http://www.w3.org/2000/svg" xmlns:xlink="http://www.w3.org/1999/xlink" x="0px" y="0px"
	 viewBox="-727.8 487.2 420.9 108.1" style="enable-background:new -727.8 487.2 420.9 108.1;" xml:space="preserve">
<style type="text/css">
	.st0{enable-background:new    ;}
	.st1{fill:none;stroke:#000000;stroke-linejoin:round;}
</style>
<g class="st0">
	<path class="st1" d="M-707,566.3c0,18.2,2.5,22.1,14.3,22.8v3.7h-34.6V589c11.7-0.6,14.6-5.1,14.6-23.9v-54.7
		c0-13.5-2.3-16.4-13.4-17.2v-3.6h28.8L-641,569v-51.8c0-10.3-0.7-15.4-2.6-18.6c-2.1-3.6-5-4.8-12-5.2v-3.7h34.9v3.7
		c-6.6,0.3-9.5,1.7-11.7,5.2c-2.1,3.3-2.9,8.8-2.9,17.7v77.1h-10.2l-61.5-88V566.3z"/>
	<path class="st1" d="M-614.4,589.2c11.2-0.3,12.4-1.7,12.4-14.3v-67.3c0-12.7-1.4-14.2-12.4-14.3v-3.6h75.7l2.5,29.4l-4.8,0.1
		c-2.9-19.2-10.2-25.5-29.6-25.5h-13.5v43.3h9.9c14.9,0,18.5-2.9,20-15.9h4.4v36h-4.4c-1.7-13.4-5.1-16.1-20-16.1h-9.9v47.8h15.2
		c18.6,0,26.3-7.2,30.3-28.7l4.6,0.6l-2.9,32.1h-77.4V589.2z"/>
	<path class="st1" d="M-480,593.3h-11.3l-20.5-82.3c-2.1-8-3.9-12.3-6.2-14.8c-1.7-1.8-3.7-2.6-8.1-3.2v-3.4h42.6v3.4
		c-5.7,0.4-7.4,0.8-9.1,2.2c-1.7,1.1-2.5,3.2-2.5,5.7c0,2.6,0.6,6.2,1.9,11.6l14.3,59.6l23.3-80.5h12.4l21.2,80.1l14.8-56.5
		c1.2-4.6,1.9-9.2,1.9-12.4c0-4.3-2.1-7.2-6.2-8.5c-1.8-0.6-3.9-0.8-7.3-1.1v-3.4h34.9v3.4c-9.7,1.4-13.2,5.9-17.9,23.4l-20.8,76.8
		h-10.9l-22.2-81.9L-480,593.3z"/>
	<path class="st1" d="M-374.1,560.3h5.5c1.9,20.7,10.2,30.5,25.6,30.5c12.1,0,19.4-7.2,19.4-19c0-9.4-5.4-15-22.6-23.4
		c-11.7-5.7-14.9-7.4-18.1-9.8c-7.9-5.8-11.3-12.4-11.3-21.9c0-11.3,6.2-21.1,16.3-25.8c4.7-2.2,10.2-3.2,17.7-3.2
		c4.6,0,6.5,0.3,16.8,2.3c1.9,0.4,3.4,0.6,4.8,0.6c2.2,0,4.1-0.4,8.3-1.9l-1.1,30.9h-5.5c-0.6-7.9-1.8-12.5-4.7-17.2
		c-4.1-7-10.9-10.9-19-10.9c-10.6,0-17.9,7.3-17.9,17.9c0,4.6,1.5,8.5,4.6,11.6c3.4,3.3,6.9,5.4,17.9,10.6
		c12.3,5.7,18.2,9.4,22.9,14.1c4.7,4.8,7.2,11.2,7.2,19.2c0,9.4-3.4,17.4-9.7,22.2c-6.5,5.1-15.2,7.9-25.2,7.9
		c-5.5,0-8.8-0.4-18.6-2.3c-1.7-0.3-3.4-0.4-5.2-0.4c-2.3,0-4.1,0.3-9.1,1.2L-374.1,560.3z"/>
</g>
</svg>
