<?xml version="1.0" encoding="utf-8"?>
<!-- Generator: Adobe Illustrator 24.0.1, SVG Export Plug-In . SVG Version: 6.00 Build 0)  -->
<svg version="1.1" id="圖層_1" xmlns="http://www.w3.org/2000/svg" xmlns:xlink="http://www.w3.org/1999/xlink" x="0px" y="0px"
	 viewBox="0 0 108.3 421" style="enable-background:new 0 0 108.3 421;" xml:space="preserve">
<style type="text/css">
	.st0{enable-background:new    ;}
	.st1{fill:none;stroke:#000000;stroke-linejoin:round;}
</style>
<g class="st0">
	<path class="st1" d="M29.2,20.8C11,20.8,7.1,23.3,6.4,35.1H2.7V0.5h3.8c0.6,11.7,5.1,14.6,23.9,14.6h54.7
		c13.5,0,16.4-2.3,17.2-13.4h3.6v28.8L26.5,86.8h51.8c10.3,0,15.4-0.7,18.6-2.6c3.6-2.1,4.8-5,5.2-12h3.7v34.9h-3.7
		c-0.3-6.6-1.7-9.5-5.2-11.7c-3.3-2.1-8.8-2.9-17.7-2.9H2.1V82.3l88-61.5H29.2z"/>
	<path class="st1" d="M6.3,113.4c0.3,11.2,1.7,12.4,14.3,12.4h67.3c12.7,0,14.2-1.4,14.3-12.4h3.6v75.7l-29.4,2.5l-0.1-4.8
		c19.2-2.9,25.5-10.2,25.5-29.6v-13.5H58.5v9.9c0,14.9,2.9,18.5,15.9,20v4.4h-36v-4.4c13.4-1.7,16.1-5.1,16.1-20v-9.9H6.7v15.2
		c0,18.6,7.2,26.3,28.7,30.3l-0.6,4.6l-32.1-2.9v-77.4L6.3,113.4L6.3,113.4z"/>
	<path class="st1" d="M2.2,247.8v-11.3L84.5,216c8-2.1,12.3-3.9,14.8-6.2c1.8-1.7,2.6-3.7,3.2-8.1h3.4v42.6h-3.4
		c-0.4-5.7-0.8-7.4-2.2-9.1c-1.1-1.7-3.2-2.5-5.7-2.5c-2.6,0-6.2,0.6-11.6,1.9l-59.6,14.3l80.5,23.3v12.4l-80.1,21.2l56.5,14.8
		c4.6,1.2,9.2,1.9,12.4,1.9c4.3,0,7.2-2.1,8.5-6.2c0.6-1.8,0.8-3.9,1.1-7.3h3.4v34.9h-3.4c-1.4-9.7-5.9-13.2-23.4-17.9L2.1,305.2
		v-10.9L84,272.1L2.2,247.8z"/>
	<path class="st1" d="M35.2,353.7v5.5c-20.7,1.9-30.5,10.2-30.5,25.6c0,12.1,7.2,19.4,19,19.4c9.4,0,15-5.4,23.4-22.6
		c5.7-11.7,7.4-14.9,9.8-18.1c5.8-7.9,12.4-11.3,21.9-11.3c11.3,0,21.1,6.2,25.8,16.3c2.2,4.7,3.2,10.2,3.2,17.7
		c0,4.6-0.3,6.5-2.3,16.8c-0.4,1.9-0.6,3.4-0.6,4.8c0,2.2,0.4,4.1,1.9,8.3L75.9,415v-5.5c7.9-0.6,12.5-1.8,17.2-4.7
		c7-4.1,10.9-10.9,10.9-19c0-10.6-7.3-17.9-17.9-17.9c-4.6,0-8.5,1.5-11.6,4.6c-3.3,3.4-5.4,6.9-10.6,17.9
		c-5.7,12.3-9.4,18.2-14.1,22.9c-4.8,4.7-11.2,7.2-19.2,7.2c-9.4,0-17.4-3.4-22.2-9.7c-5.1-6.5-7.9-15.2-7.9-25.2
		c0-5.5,0.4-8.8,2.3-18.6c0.3-1.7,0.4-3.4,0.4-5.2c0-2.3-0.3-4.1-1.2-9.1L35.2,353.7z"/>
</g>
</svg>
