<?xml version="1.0" encoding="utf-8"?>
<!-- Generator: Adobe Illustrator 19.0.1, SVG Export Plug-In . SVG Version: 6.00 Build 0)  -->
<svg version="1.1" id="圖層_1" xmlns="http://www.w3.org/2000/svg" xmlns:xlink="http://www.w3.org/1999/xlink" x="0px" y="0px"
	 viewBox="-631.9 497.2 633.1 87.4" style="enable-background:new -631.9 497.2 633.1 87.4;" xml:space="preserve">
<style type="text/css">
	.st0{enable-background:new    ;}
	.st1{fill:none;stroke:#000000;stroke-linejoin:round;}
</style>
<g class="st0">
	<path class="st1" d="M-622,510.8c6.4-8.3,17.3-13.1,29.7-13.1c12.3,0,23,4.7,29.6,13.1c6.1,7.5,9.4,18.4,9.4,30
		c0,11.8-3.3,22.6-9.4,30.2c-6.7,8.3-17.3,13.1-29.6,13.1c-12.3,0-23.2-4.8-29.7-13.1c-6-7.5-9.4-18.5-9.4-30.2
		S-628.1,518.5-622,510.8z M-609.6,570.6c3.5,6.9,9.4,10.4,17.3,10.4c7.8,0,13.6-3.5,17.2-10.4c3.9-7.5,5.7-16.7,5.7-29.8
		c0-13-1.8-22.2-5.7-29.7c-3.7-7-9.3-10.4-17.2-10.4c-7.9,0-13.7,3.5-17.3,10.4c-3.9,7.5-5.7,17-5.7,29.7
		C-615.2,553.8-613.4,563-609.6,570.6z"/>
	<path class="st1" d="M-511,499.3v2.9c-8.6,0.3-9.5,1.4-9.5,11.5v35c0,10.4,1.1,16.6,4,21.5c3.5,6,9.6,9.2,17.5,9.2
		c9.3,0,16.5-4.4,19.8-12.3c1.8-4.2,2.8-11.2,2.8-19.8v-25.8c0-15.6-1.9-18.7-11.4-19.2v-3h27.3v3c-9.2,0.4-11.3,4-11.3,19.2v25.9
		c0,11.8-1.2,18.4-4.4,23.8c-5.2,8.8-13.4,12.8-26.1,12.8c-12.4,0-21.8-3.8-27.3-10.8c-4-5.3-5.3-10.5-5.3-21.8v-37.7
		c0-10.1-0.9-11.2-9.6-11.5v-2.9H-511z"/>
	<path class="st1" d="M-431.6,568c0,10.1,0.9,11.1,10,11.4v2.9H-456v-2.9c9.1-0.3,10-1.3,10-11.4v-54.2c0-10.1-0.9-11.1-9.5-11.5
		v-2.9h33.9c9.3,0,17.1,1.2,21.5,3.3c7,3.3,10.2,8.6,10.2,16.9c0,13.4-8.3,20.4-25.8,21.7v0.9c5.8,0.7,9.8,2.4,13.8,5.9
		c3.7,3.1,5.5,6.5,10.9,19c4.3,10.1,6.2,12.2,11.4,12.6v2.7h-21.8c-5.2-15.5-8.3-23.7-11.5-29.9c-3.5-6.9-7-9.2-14.1-9.2h-4.4V568z
		 M-425.6,539.9c13.2,0,20.3-6.7,20.3-19.1c0-12.4-6.3-18.3-19.5-18.3h-6.8v37.4H-425.6z"/>
	<path class="st1" d="M-296.1,567.9c0,10.2,1.1,11.3,11.5,11.5v2.9h-37.6v-2.9c10.3-0.2,11.4-1.3,11.4-11.5v-65.6
		c-9.9,0.2-15.1,2-19,6.4c-3.1,3.5-5,9.2-6.7,19.1l-4-0.2l2.1-28.2h69.7l2.1,28.2l-4,0.2c-1.8-10.8-4-16.5-7.7-20
		c-3.9-3.8-8.9-5.3-18.1-5.5V567.9z"/>
	<path class="st1" d="M-261.3,579.4c9-0.2,10-1.3,10-11.5v-54.1c0-10.2-1.1-11.4-10-11.5v-2.9h60.9l2,23.6l-3.9,0.1
		c-2.3-15.4-8.2-20.5-23.8-20.5H-237v34.8h8c12,0,14.9-2.3,16.1-12.8h3.5v28.9h-3.5c-1.3-10.8-4.1-13-16.1-13h-8v38.5h12.2
		c15,0,21.2-5.8,24.4-23.1l3.7,0.4l-2.3,25.8h-62.2V579.4z"/>
	<path class="st1" d="M-169.9,562.7c-1.7,4.2-2.4,7.7-2.4,10.2c0,4.3,3.1,6.3,10.4,6.5v2.9h-28.5v-2.9c7.2-0.1,11.2-4.4,16.2-17.5
		l23.6-62.5l8.2-0.9l24.2,68c2.5,6.9,4.7,10.4,7.2,11.8c1.2,0.6,2.2,0.8,5.9,1.2v2.9h-36.1v-2.9c7-0.2,9.5-1.7,9.5-5.3
		c0-0.1,0-0.2,0-0.3c-0.1-1.8-0.7-4.5-1.7-7.3l-4.2-12.2h-29.2L-169.9,562.7z M-151.7,513.9l-13.5,36h26.2L-151.7,513.9z"/>
	<path class="st1" d="M-86.2,560.2c0,8.3,0.6,12.3,2,15c1.8,2.9,4,3.9,9.5,4.2v2.9h-27.6v-2.9c9.3-0.6,11.5-4.3,11.5-19.2v-46.7
		c0-6-0.6-8.2-2.4-9.6c-1.3-1.2-2.9-1.6-7.2-1.7v-2.9h26.5l24.3,62.5l24.6-62.5H0.4v2.9c-8.9,0.3-9.6,1.3-9.6,11.6V568
		c0,10.1,0.9,11.2,10,11.4v2.9h-34.3v-2.9c9-0.2,10-1.3,10-11.4v-61.2l-28.6,73.4h-5.8l-28.3-72.5V560.2z"/>
</g>
</svg>
